<svg xmlns="http://www.w3.org/2000/svg" viewBox="0 0 1770.43 870.2">
      <defs>
        <style>
          .a {
            fill: #e6ae46;
          }

          .b {
            fill: #e6ac4a;
          }

          .c {
            fill: #e6ab4d;
          }

          .d {
            fill: #e6aa51;
          }

          .e {
            fill: #e6a954;
          }

          .f {
            fill: #e6a858;
          }

          .g {
            fill: #e6a65b;
          }

          .h {
            fill: #e6a55e;
          }

          .i {
            fill: #e6a461;
          }

          .j {
            fill: #e6a364;
          }

          .k {
            fill: #e6a267;
          }

          .l {
            fill: #e6a169;
          }

          .m {
            fill: #e69f6c;
          }

          .n {
            fill: #e69e6e;
          }

          .o {
            fill: #e69d70;
          }

          .p {
            fill: #e69c73;
          }

          .q {
            fill: #e69b75;
          }

          .r {
            fill: #e69977;
          }

          .s {
            fill: #e69879;
          }

          .t {
            fill: #e6977b;
          }

          .u {
            fill: #e6967d;
          }

          .v {
            fill: #e6957f;
          }

          .w {
            fill: #e69381;
          }

          .x {
            fill: #e69283;
          }

          .y {
            fill: #e69185;
          }

          .z {
            fill: #e69087;
          }

          .aa {
            fill: #e68f89;
          }

          .ab {
            fill: #e68d8b;
          }

          .ac {
            fill: #e68c8d;
          }

          .ad {
            fill: #e68b8f;
          }

          .ae {
            fill: #e68a91;
          }

          .af {
            fill: #e68992;
          }

          .ag {
            fill: #e68794;
          }

          .ah {
            fill: #e58696;
          }

          .ai {
            fill: #e58597;
          }

          .aj {
            fill: #e58399;
          }

          .ak {
            fill: #e5829a;
          }

          .al {
            fill: #e5819c;
          }

          .am {
            fill: #e57f9e;
          }

          .an {
            fill: #e57e9f;
          }

          .ao {
            fill: #e57da1;
          }

          .ap {
            fill: #e57ba2;
          }

          .aq {
            fill: #e57aa4;
          }

          .ar {
            fill: #e579a5;
          }

          .as {
            fill: #e577a7;
          }

          .at {
            fill: #e576a8;
          }

          .au {
            fill: #e575aa;
          }

          .av {
            fill: #e573ad;
          }

        </style>
      </defs>
      <path class="a"
        d="M1195.06.61c-31.94,56.33-97.39,77.66-151.27,106.6-32.36,17.38-60.64,40-88.27,64-14.73,12.82-29.31,25.84-44.62,38-16,12.65-33.16,23.9-52.9,29.68-19.28,5.65-39.56,7-59.46,8.88-18.49,1.78-37,3.61-55.31,6.88-17.81,3.18-35.41,7.77-52.06,14.93-15.32,6.59-29.33,15.56-42.38,25.89-25.77,20.42-47.58,45.29-73,66.09C563,372,549.3,381.33,534.21,388c-18.44,8.14-38.41,11.76-57.93,16.34a249.42,249.42,0,0,0-53.48,18.85c-17.06,8.4-33.27,18.39-49.49,28.28-33.68,20.55-69.38,41.87-109.54,45.59a118.2,118.2,0,0,1-30.06-1c-1.57-.26-2.25,2.15-.66,2.41C314.29,511.74,375.79,442,446.2,415.7c18.81-7,38.59-10.41,58-15.26,17.45-4.36,34.08-10.46,49.45-19.89,28-17.22,50.57-41.69,74.52-63.89,12.24-11.35,25-22.29,39-31.39a183.28,183.28,0,0,1,51.58-22.61c37.65-10.3,76.69-10.73,115.1-16.21,19.51-2.79,37.89-8.29,54.83-18.49,16.26-9.79,30.83-22.26,45.19-34.58,30.08-25.79,59.17-53.19,93.23-73.8,52.62-31.84,118.21-49.57,157.84-99.42a142.69,142.69,0,0,0,12.31-18.29,1.25,1.25,0,0,0-2.16-1.26Z" />
      <path class="b"
        d="M1207.25,6.28C1174.58,60.5,1110.63,81.86,1057.51,110c-31.38,16.61-59.19,37.74-85.93,61-14.38,12.5-28.5,25.32-43.06,37.63-14.88,12.6-30.34,25-48.18,33.19-19,8.71-39.9,11.62-60.45,14.14-19.62,2.4-39.33,4.25-58.89,7.18s-39.34,7.09-57.92,14.4c-17.4,6.84-33.27,16.53-48,28-28.2,21.94-52.15,48.86-80.77,70.3-14.16,10.61-29.47,19.69-46.2,25.61-18.21,6.45-37.35,9.57-56.12,13.9-37.73,8.72-70.73,27.11-104.14,46-34,19.25-70,38.36-109.66,41.63a129.26,129.26,0,0,1-29.42-.91c-1.58-.24-2.26,2.17-.67,2.41,80.56,11.85,143.44-51.6,213.92-77.77,35.61-13.22,74.75-14.31,108.6-32.58,30.74-16.61,55.35-42.1,81-65.36,14.24-12.92,29-25.48,45.42-35.55,17.72-10.84,37.23-18,57.41-22.64,39.86-9.2,81.34-8.59,121.12-17.9A143.36,143.36,0,0,0,906.8,229c15.26-10.93,29.35-23.5,43.41-35.9,29-25.53,57.75-51.63,91.19-71.29,52-30.57,115.73-48.67,155.49-96.57a144.33,144.33,0,0,0,12.52-17.67,1.25,1.25,0,0,0-2.16-1.27Z" />
      <path class="c"
        d="M1219.45,12c-34.8,54.36-100.89,75.2-155,104.38-32,17.28-60.22,39.53-87.41,63.55-14.56,12.86-28.88,26-43.64,38.63s-30.38,25-48.38,32.92c-18.65,8.19-39,11.39-59,14.25-20.18,2.88-40.47,4.9-60.62,8-19.75,3-39.42,7.27-58,14.81-17.36,7.05-33.15,17-47.91,28.45-28.74,22.31-53.68,49.23-83.39,70.34-14.68,10.43-30.5,19.17-47.66,24.81-18.71,6.15-38.24,9.11-57.43,13.33-38,8.38-71.9,26.15-106.11,44.12-35.25,18.51-72.46,36.56-112.83,39.33a143.2,143.2,0,0,1-28.6-.9c-1.59-.21-1.57,2.29,0,2.5,81.62,10.76,146.77-49.9,219.45-74.74,36.4-12.44,75.9-13.46,110.46-31.47,31.4-16.37,56.88-41.61,83.16-64.84,14.76-13.05,29.95-25.82,46.84-36.07,17.71-10.76,37.14-17.91,57.29-22.51,39.79-9.09,81.14-9.31,120.8-19a146.85,146.85,0,0,0,51.28-23.69C928.29,227,942.5,214.1,956.72,201.4c29.18-26.07,58.16-52.79,91.81-73.11,53-32,118.44-49.82,160.26-97.91a144.67,144.67,0,0,0,12.81-17.16c.87-1.36-1.29-2.61-2.15-1.26Z" />
      <path class="d"
        d="M1231.64,17.63c-36.77,54.12-104.37,74.53-159.2,104.58-32.8,18-61.57,41.31-89.32,66.2-14.51,13-28.79,26.3-43.5,39.09s-30.36,25.15-48.45,33.07c-18.88,8.28-39.46,11.91-59.69,15.13S791,281,770.82,284.13c-19.62,3-39.16,7.24-57.58,14.8-17.79,7.29-33.93,17.6-49.11,29.32-28.69,22.14-54.11,48.36-84,69-15.08,10.38-31.26,19.1-48.73,24.72-19.11,6.15-39,9-58.66,13-38.8,7.91-73.79,24.71-109.16,41.94-36.37,17.72-74.46,34.86-115.37,37.73a159.44,159.44,0,0,1-29.63-.68c-1.59-.19-1.58,2.31,0,2.5,83.25,9.74,150.86-48.52,226.26-71.92,37.11-11.51,76.82-12.55,112-30.39,31.86-16.19,58.09-41.1,84.94-64.22C656.71,337,672.05,324.3,689,314a191.33,191.33,0,0,1,56.62-22.57c40.14-9.29,81.83-10,121.8-20.22a152.16,152.16,0,0,0,52-24.22c15.48-11.21,29.57-24.3,43.71-37.11,29.55-26.77,58.9-54.25,93-75.3,28.05-17.33,58.41-30.4,87.73-45.35,27.67-14.11,55.29-30.14,76.49-53.25A149.79,149.79,0,0,0,1233.8,18.9c.9-1.34-1.26-2.59-2.16-1.27Z" />
      <path class="e"
        d="M1243.83,23.31c-19.1,26.49-46.6,44.86-75,60.15-29.35,15.8-60.13,28.8-89.24,45.08C1046.66,147,1017.8,171,990,196.28,975.45,209.51,961.16,223,946.45,236c-14.9,13.19-30.59,25.58-48.91,33.68-37.29,16.47-79.75,18.5-119.53,24.56-20,3.05-40,7.23-58.73,15-18.12,7.48-34.58,18.05-50.1,29.94-29.33,22.45-55.77,48.67-86.7,69-15.8,10.39-32.69,18.95-50.85,24.37-19.3,5.77-39.3,8.5-59,12.29-39,7.48-74.75,23.34-110.76,39.58-37.49,16.9-76.49,33.08-118,36a175.43,175.43,0,0,1-30.23-.5c-1.59-.16-1.58,2.34,0,2.5,83.87,8.63,153.58-45.8,230.47-68.25,37.79-11,78-11.88,114-29.13,33.16-15.92,60.67-41,88.58-64.44,15.28-12.83,30.81-25.56,47.88-36a192.87,192.87,0,0,1,57.73-23.05c40.33-9.22,82.11-10.19,122.13-21.17a157.2,157.2,0,0,0,51.67-24.49c15.62-11.4,29.73-24.82,43.94-37.89,29.5-27.15,58.84-54.95,92.79-76.58,28.41-18.1,59.4-31.57,89.46-46.61,28.52-14.27,57.2-30.16,79.58-53.3a154.27,154.27,0,0,0,14.16-17c.94-1.31-1.22-2.56-2.16-1.26Z" />
      <path class="f"
        d="M1256,29c-20.16,26.36-48.59,44.41-77.59,59.67-29.87,15.72-61,28.88-90.43,45.55-33.4,19-62.63,43.67-90.75,69.63-14.6,13.48-28.92,27.28-43.68,40.59-15.14,13.66-31.13,26.3-49.88,34.63-37.78,16.77-80.15,19.5-120.49,25.67-20.39,3.13-40.6,7.5-59.65,15.61-18.1,7.7-34.54,18.53-50.14,30.41-29.4,22.38-56.38,48-87.65,67.87-16,10.15-33,18.51-51.21,23.84-19.69,5.76-40.09,8.43-60.24,12-40.35,7.14-77.64,22.38-115.29,38-38.41,16-78.14,31-120,33.78a194.11,194.11,0,0,1-30.31-.34c-1.61-.14-1.6,2.36,0,2.5,85.18,7.6,157.32-44,236.47-65.12,38.42-10.24,79-11.08,115.52-28,33.42-15.46,61.53-39.88,89.75-63.05,15.68-12.87,31.51-25.75,48.8-36.42A192.82,192.82,0,0,1,757,312.18c40.77-9.5,82.95-10.52,123.35-22.14,18.71-5.37,36.27-13.29,52-24.82,16-11.68,30.23-25.57,44.64-39.06,29.66-27.76,59.25-56.09,93.41-78.35,28.94-18.86,60.68-32.74,91.56-48,28.92-14.28,58.12-29.91,81.34-52.69a157,157,0,0,0,14.88-16.89c1-1.27-1.19-2.52-2.15-1.26Z" />
      <path class="g"
        d="M1268.41,34.4c-21,25.89-49.75,43.57-79,58.71-30.85,16-63,29.48-93.09,46.83-33.57,19.33-63,44.51-91.14,70.9-14.8,13.86-29.27,28.09-44.19,41.82-15.24,14-31.35,26.85-50.31,35.48C872.55,305.51,830.17,308.82,789.3,315c-20.24,3.08-40.31,7.38-59.21,15.43-18.66,7.94-35.57,19.11-51.72,31.27-30.31,22.84-58.5,48.71-91.1,68.37a206.9,206.9,0,0,1-53.5,23.25c-19.87,5.3-40.33,7.78-60.58,11.16-40.58,6.77-78.57,21.21-116.83,35.84-39.19,15-79.53,28.91-121.71,31.7a216.79,216.79,0,0,1-30.9-.15c-1.61-.12-1.6,2.38,0,2.5,41.7,3.18,82.91-6.71,122.1-20.18S403,483.33,443.41,473.15c39.07-9.87,80.22-10.48,117.62-26.63,34.51-14.89,63.78-39.12,92.84-62.44,15.91-12.76,31.88-25.63,49.16-36.52A193.65,193.65,0,0,1,760.62,323c20.73-5.06,42-7.31,63.09-10.24,20.78-2.89,41.47-6.77,61.61-12.71,18.84-5.57,36.78-13.45,52.73-25s30.18-25.68,44.5-39.31c29.81-28.4,59.54-57.33,93.79-80.44,29.43-19.86,62-34.33,93.8-49.8,29.4-14.29,59.17-29.56,83.49-51.79a162.57,162.57,0,0,0,16.55-17.56c1-1.24-.75-3-1.77-1.77Z" />
      <path class="h"
        d="M1280.61,40.08c-22.3,25.93-52.29,43.39-82.47,58.63-31.67,16-64.48,29.82-95.06,47.9-33.86,20-63.47,46-91.83,73-29.34,28-57,60.87-94.47,78.12-37.94,17.48-79.6,21.33-120.39,27.39-20.27,3-40.37,7.23-59.33,15.22s-36.38,19.43-53,31.74C653.34,395,624.44,420.56,591.3,440a216.4,216.4,0,0,1-54.6,23.18c-19.94,5.22-40.45,7.64-60.79,10.73C433.79,480.32,394.07,494,354,508s-81.1,27-123.72,29.79a243.3,243.3,0,0,1-31.49,0c-1.61-.11-1.6,2.4,0,2.5,42.4,2.7,84.34-6.65,124.55-19.35,40.43-12.78,79.7-29.24,121.13-38.75,40-9.17,81.72-9.73,119.93-25.86,34.94-14.75,64.89-38.61,94.51-61.81,16.36-12.81,32.71-25.81,50.35-36.83a195.81,195.81,0,0,1,58.45-24.72c20.72-5,42-7.11,63-10.06a390.18,390.18,0,0,0,60.39-12.94c18.65-5.72,36.65-13.57,52.55-25,16.36-11.75,30.57-26.16,45-40.14,29.77-28.89,59.5-58.22,93.63-82,29.89-20.84,63.1-35.93,95.83-51.63,30.59-14.67,61.71-30,87.43-52.49a169.07,169.07,0,0,0,16.81-16.94c1-1.22-.72-3-1.77-1.77Z" />
      <path class="i"
        d="M1292.8,45.75c-23.27,25.53-53.91,42.64-84.53,57.82-32.48,16.09-66,30.26-97.12,49-34.25,20.59-64.2,47.3-92.79,75-29.7,28.79-57.36,62.18-95.52,80-38.41,17.93-80.1,21.9-121.46,28.06-20,3-39.84,7.28-58.56,15.23-19.36,8.23-36.92,19.87-53.82,32.29-31.47,23.12-61.39,48.72-95.56,67.91a223.32,223.32,0,0,1-55.73,22.51c-20.37,5-41.26,7.33-62,10.25-42.07,5.94-82.18,18.48-122.51,31.42-41.26,13.23-83.31,25.48-126.76,28.38a274.36,274.36,0,0,1-32.57.25c-1.61-.08-1.61,2.42,0,2.5,43.42,2.24,86.36-6.71,127.84-18.76,41-11.92,81.06-27.15,122.94-36,40.77-8.58,83.21-9,122.22-24.93,35.86-14.63,66.83-38.4,97.35-61.76,33.6-25.71,67.08-51.32,109-61.49,20.76-5,42.06-7.14,63.18-10.07a364.9,364.9,0,0,0,61.47-13.5c18.49-5.94,36.4-13.92,52.25-25.25,16.64-11.91,30.93-26.71,45.41-41.07,29.6-29.37,59.35-59,93.36-83.38,30.64-21.92,64.8-37.74,98.71-53.84,31.06-14.75,62.71-29.88,89.34-52a176.72,176.72,0,0,0,17.66-16.84c1.08-1.19-.68-3-1.77-1.77Z" />
      <path class="j"
        d="M1305,51.43c-24.48,25.32-56.09,42.17-87.45,57.41-33.07,16.07-67.06,30.51-98.48,49.75-34.61,21.21-64.86,48.6-93.66,77-29.8,29.4-57.22,63-95.66,81.44C911.09,326,891,332.11,870.8,336.42c-21,4.48-42.35,6.34-63.52,9.47-20.08,3-39.87,7.3-58.58,15.34-19.7,8.45-37.55,20.35-54.84,32.9-32.1,23.31-63,48.82-98,67.72a231,231,0,0,1-56.17,21.79c-21.33,5.07-43.19,7.25-64.9,10.1C388.59,505.08,308.22,544,221,549.45a309.67,309.67,0,0,1-32.1.37c-1.61-.06-1.61,2.44,0,2.5,43.79,1.75,87.15-6.53,129.31-17.66S401.81,509.23,444.76,501c41.65-8,84.78-8.35,124.69-24.05,36.34-14.3,68-37.69,99.06-60.91,34.4-25.73,68.5-52.1,111.07-62.4,20.8-5,42.15-7.08,63.31-10,20.93-2.88,41.52-7.13,61.58-13.83,19-6.34,37.35-14.81,53.57-26.66,16.5-12.05,30.62-27,44.9-41.48,29.64-30.13,59.69-60.36,94-85.26,31-22.53,65.6-38.81,100.15-55.07,31.55-14.86,63.77-29.81,91.3-51.55a183.07,183.07,0,0,0,18.39-16.61c1.12-1.15-.64-2.92-1.77-1.76Z" />
      <path class="k"
        d="M1317.19,57.1c-25.73,25.1-58.33,41.7-90.46,57-34.2,16.31-69.24,31.27-101.35,51.56-34.47,21.78-64.62,49.58-93.28,78.39-29.77,29.94-56.88,63.66-95.5,82.61a256.11,256.11,0,0,1-59.89,20.17c-21.33,4.51-43.11,6.27-64.65,9.49-20.45,3.05-40.46,7.7-59.41,16.13-19.92,8.86-38,21.17-55.62,33.87-32.16,23.17-63.48,48-98.82,66.32a239.42,239.42,0,0,1-58.6,21.55c-21.45,4.72-43.36,6.73-65.12,9.36-87.3,10.58-169.71,46.21-257.81,51.69q-16.34,1-32.69.54c-1.61,0-1.61,2.45,0,2.5,44.16,1.27,87.95-6.29,130.75-16.57,43.05-10.34,85.44-23.5,129.1-31.2,42.18-7.43,85.8-7.62,126.38-22.67C607.44,474.05,640.15,451,672,427.71c34.85-25.47,69.25-52.63,111.91-63.4C805,359,826.76,357,848.3,354.06c21.37-2.87,42.34-7.12,62.75-14.17,18.89-6.52,37.1-15.15,53.31-26.92,16.77-12.18,31-27.39,45.28-42.29,29.49-30.76,59.64-61.42,93.9-86.93,31.19-23.23,66-40.12,101.13-56.51,33-15.41,66.9-30.51,96-52.68A195.89,195.89,0,0,0,1319,58.87c1.15-1.13-.62-2.89-1.77-1.77Z" />
      <path class="l"
        d="M1329.38,62.78c-26.79,24.63-60.05,40.92-92.72,56.25-34.8,16.33-70.35,31.6-102.8,52.42-35.4,22.71-66.29,51.65-95.54,81.69-29.82,30.63-56.73,64.39-95.78,83.75a248.72,248.72,0,0,1-61,20.64c-21.4,4.32-43.21,6-64.77,9.26-20.8,3.14-41.05,8.16-60.21,17-19.8,9.13-37.79,21.54-55.5,34.14-32.81,23.36-65.09,48.08-101.36,66a247.18,247.18,0,0,1-59.17,20.62c-22.22,4.61-44.87,6.47-67.39,9-88.05,9.83-172.09,42.06-260.78,47.55q-16.62,1-33.27.73a1.25,1.25,0,0,0,0,2.5c90.46,1.61,175.56-30,263.83-44.23,42.71-6.87,86.8-6.9,128-21.31,38.1-13.31,71.83-36.07,104.45-59.35,35.3-25.19,70-53.1,112.74-64.36,21.68-5.71,44.07-7.73,66.23-10.64,21.22-2.79,42-6.89,62.27-14,19.13-6.7,37.53-15.57,54-27.47,17-12.32,31.42-27.79,45.72-43.09,29.52-31.56,59.84-62.86,94.32-89.07,31.77-24.16,67.3-41.75,103.36-58.48,33.8-15.68,68.6-30.73,98.86-52.79a209.71,209.71,0,0,0,18.29-15c1.19-1.09-.59-2.85-1.77-1.76Z" />
      <path class="m"
        d="M1341.58,68.45c-28.12,24.37-62.39,40.43-95.9,55.9-35.45,16.37-71.51,32-104.27,53.5-35.18,23.07-66,52.15-95,82.47-29.76,31.11-56.37,65.35-95.32,85.55a238.65,238.65,0,0,1-61.8,21.72c-21.76,4.45-44,6.07-65.9,9.33-21.18,3.15-41.74,8.3-61.21,17.36-20.1,9.35-38.4,22-56.49,34.7-33.61,23.61-66.94,48.3-104.24,65.91A256.5,256.5,0,0,1,540.27,515c-22.31,4.28-45,6-67.56,8.27-89.17,9-175.1,38-264.75,43.55q-16.9,1-33.85.92a1.25,1.25,0,0,0,0,2.5c91.27.67,178.24-27.71,267.76-40.73,43.29-6.29,87.87-6.19,129.77-20,39.1-12.86,74-35.42,107.5-58.8,36.22-25.26,71.69-54,115.16-65.51,22.05-5.85,44.85-7.78,67.4-10.71,21.61-2.8,42.77-7,63.27-14.52,19-7,37.2-16.14,53.5-28.19,16.89-12.49,31.13-28,45.24-43.42,29-31.77,58.93-63.1,92.89-89.66,32.63-25.51,69.22-44.07,106.67-61.35,34.37-15.86,69.79-30.79,101-52.43a224,224,0,0,0,19-14.74c1.22-1.06-.55-2.82-1.76-1.77Z" />
      <path class="n"
        d="M1353.77,74.12c-29.48,24.07-64.79,39.93-99.19,55.58-36.77,16.73-74,33.12-107.55,55.89-34.77,23.6-65.24,52.89-93.86,83.48-15,16.05-29.11,33-44.54,48.61A207.29,207.29,0,0,1,957,356.35a231.94,231.94,0,0,1-62,21.76c-22.16,4.38-44.74,5.89-67.05,9.27-21.54,3.26-42.32,8.86-62,18.34-20,9.62-38.19,22.3-56.35,34.89-34.3,23.78-68.59,48.29-106.82,65.47A265.61,265.61,0,0,1,540,525.5c-22.38,4-45.08,5.5-67.69,7.56-90.29,8.25-178,34-268.68,39.57q-17.19,1.07-34.43,1.1a1.25,1.25,0,0,0,0,2.5c92.41-.25,181.4-25.6,272.47-37.35,43.87-5.65,88.93-5.47,131.48-18.81,39.59-12.4,75.16-34.44,109.24-57.62,36.71-25,72.49-54.26,116-66.41,22.35-6.25,45.56-8.21,68.5-11.08,21.67-2.71,42.95-6.66,63.51-14.19a216.27,216.27,0,0,0,54.31-28.72c17.14-12.68,31.56-28.32,45.7-44.16,28.94-32.42,58.77-64.32,92.78-91.54,33-26.4,70-45.74,108.21-63.33,35.27-16.22,71.67-31.12,104.24-52.51a239.62,239.62,0,0,0,20-14.62c1.24-1-.53-2.78-1.77-1.77Z" />
      <path class="o"
        d="M1366.21,79.6c-30.17,23.2-65.51,38.71-100,54.21-37.42,16.81-75.25,33.49-109.27,56.67-35.47,24.17-66.51,54.22-95.46,85.74-15.14,16.48-29.25,33.9-44.81,50a211.64,211.64,0,0,1-50.8,39.12A223.26,223.26,0,0,1,904,388c-22.06,4.5-44.58,6-66.84,9.16-21.7,3.11-42.68,8.41-62.59,17.71-20.43,9.55-39.09,22.33-57.66,35-35,24-70.18,48.48-109.14,65.75A275.33,275.33,0,0,1,544,535.18c-22.76,4-45.86,5.53-68.87,7.36-92.39,7.37-182.79,30.12-275.37,35.85q-17.76,1.1-35.55,1.32a1.25,1.25,0,0,0,0,2.5c94.49-1.18,186.32-24,279.84-34.28,44.28-4.89,89.56-4.76,132.49-17.95,40-12.28,76.12-34,110.7-57,37.53-25,74-54.78,118.18-67,43.52-12,89.48-9.16,132.17-25.11a216.89,216.89,0,0,0,53.55-28.74c16.93-12.57,31.24-27.94,45.09-43.75,29.06-33.18,58.73-65.9,92.91-93.95,33.32-27.35,70.66-47.59,109.69-65.54,35.92-16.52,73-31.32,106.77-52.11a254.92,254.92,0,0,0,21.86-15c1.25-1,0-3.14-1.27-2.16Z" />
      <path class="p"
        d="M1378.41,85.28c-31,22.43-66.67,37.61-101.49,53-37.76,16.75-75.81,33.61-110,57C1131.2,219.71,1100,250,1071,282c-30,33.16-56.15,69.4-95.71,92a215.21,215.21,0,0,1-62.51,23.85c-22.39,4.69-45.3,6.11-67.93,9.25-22.08,3.07-43.41,8.36-63.68,17.79-20.78,9.67-39.78,22.62-58.73,35.4-35.77,24.11-71.8,48.58-111.6,65.66a285.06,285.06,0,0,1-65,19.32c-23.16,3.93-46.65,5.33-70.06,7-93.93,6.56-186.39,26.18-280.4,32q-18,1.11-36.14,1.51a1.25,1.25,0,0,0,0,2.5c95.84-2.1,189.74-21.84,284.92-30.92,45.07-4.3,91.06-4.08,134.82-17.08,40.72-12.1,77.76-33.62,113.14-56.7,38.36-25,75.51-55.32,120.44-67.56,44.29-12.06,91-8.77,134.28-25.65a216.42,216.42,0,0,0,53.8-30.24c17-13.11,31.23-29,45.11-45.23,28.9-33.84,58.72-67,93.15-95.33,33.5-27.59,71.07-48.07,110.39-66.07,36.22-16.58,73.59-31.24,108-51.45q11.49-6.73,22.32-14.52c1.29-.94,0-3.11-1.26-2.16Z" />
      <path class="q"
        d="M1390.6,91c-32.14,21.85-68.46,36.79-103.91,52.31-38.45,16.83-77,34.12-111.64,58.14-35.45,24.61-66.53,55-95.14,87.15-30.16,33.92-56.2,71.09-96,94.64a209.64,209.64,0,0,1-64.47,25c-22.41,4.58-45.31,5.91-67.94,9-22.08,3-43.37,8.34-63.64,17.72-21.47,9.95-41.08,23.32-60.73,36.39-37,24.61-74.47,49.29-115.8,66.08a294.3,294.3,0,0,1-63.57,17.94c-23.56,3.84-47.44,5.13-71.25,6.56C381,567.64,286.57,584.13,191.09,590q-18.36,1.13-36.74,1.7c-1.6.05-1.61,2.55,0,2.5,96.84-3,192.37-19.58,288.79-27.46,45.89-3.76,92.67-3.37,137.31-16,41.53-11.76,79.51-33,115.7-56.09,39.2-25,77-55.89,122.54-68.45,45-12.39,92.59-8.5,136.44-26.06a215.56,215.56,0,0,0,52-29.71c18-14,32.94-30.88,47.46-48.28,28.78-34.49,58.64-68.1,93.29-96.88,33.55-27.88,71.18-48.7,110.72-66.76,36.83-16.83,74.86-31.43,110.26-51.21q11.79-6.58,23-14.15c1.33-.9.08-3.07-1.26-2.16Z" />
      <path class="r"
        d="M1402.8,96.63c-33.27,21.24-70.28,36-106.37,51.56-39.14,16.93-78.25,34.68-113.23,59.33-35.52,25-66.65,55.77-95.14,88.45-30.29,34.75-56.26,72.72-96.49,97a203.49,203.49,0,0,1-63.32,25.11c-22.76,4.75-46,6-69,9.09-22.45,3-44.08,8.29-64.71,17.8-21.83,10.07-41.78,23.62-61.82,36.78-37.72,24.78-76.13,49.38-118.29,66a304.92,304.92,0,0,1-64.76,17.68c-24,3.74-48.24,4.93-72.44,6.16-97.08,4.94-193.46,18.28-290.46,24.18q-18.66,1.14-37.33,1.88c-1.6.07-1.61,2.57,0,2.5,98.29-3.92,195.77-17.48,293.85-24.11,46.67-3.15,94.18-2.67,139.63-15.12,42.29-11.58,81.16-32.66,118.15-55.78,40-25,78.51-56.42,124.8-69C871.09,423.78,919,428,963,410.07a213.28,213.28,0,0,0,52-30.33c18.08-14.31,33.15-31.58,47.69-49.38,28.7-35.16,58.48-69.35,93.3-98.67,33.82-28.47,71.78-49.86,111.87-68.15,37.44-17.09,76.14-31.67,112.53-51,8.06-4.28,16-8.84,23.67-13.76,1.35-.86.1-3-1.26-2.15Z" />
      <path class="s"
        d="M1415,102.3c-34.1,20.42-71.44,34.84-107.89,50.42-39.85,17-79.56,35.18-115,60.41-36.17,25.74-67.8,57.34-96.52,91.06-15.45,18.14-29.51,37.46-45.36,55.26-15.16,17-32.42,32.12-51.94,44a198.33,198.33,0,0,1-63.52,25c-23.14,4.7-46.79,5.85-70.16,9-22.82,3.07-44.71,8.74-65.58,18.58-21.71,10.24-41.63,23.77-61.72,36.79-38.47,24.94-77.83,49.36-120.88,65.65-45.11,17.08-91.94,20.85-139.73,22.84-98.27,4.1-196.14,14.3-294.3,20.24q-19,1.16-37.92,2.07c-1.6.08-1.61,2.58,0,2.5,99.37-4.82,198.34-15.31,297.67-20.7,47.47-2.58,95.78-1.93,142.11-14,43.1-11.25,82.9-32,120.71-55.17,40.56-24.8,79.36-56.44,125.77-69.58,45.52-12.88,94.11-8,138.52-25.89,41.68-16.81,73.06-46.55,100.77-81.14,29-36.24,58.91-71.49,94.36-101.69,34.26-29.19,72.8-51.18,113.66-69.76,37.76-17.17,76.79-31.65,113.85-50.35,8.27-4.18,16.41-8.61,24.36-13.37a1.25,1.25,0,0,0-1.26-2.16Z" />
      <path class="t"
        d="M1427.18,108c-35.54,20-74,34.26-111.39,50.11-40.21,17-80.07,35.57-115.59,61.24-36.53,26.39-68.43,58.7-97.18,93.28-29.72,35.75-55.21,74.32-95.28,99.64a194,194,0,0,1-65.37,26.37c-23.85,4.8-48.23,5.82-72.29,9.1-23.24,3.16-45.44,9.21-66.61,19.42-21.93,10.57-42.11,24.31-62.58,37.38C702,529.37,662,553.35,618.41,569.2,572,586.08,523.89,589.47,475,591.06c-99.27,3.24-198.37,10.35-297.49,16.32q-19,1.14-37.93,2.22c-1.6.09-1.61,2.59,0,2.5C240,606.39,340.41,598.92,441,594.78c47.91-2,96.62-1.16,143.5-12.62,44.31-10.83,85.41-31.5,124.37-54.8,41.41-24.77,80.85-56.92,127.85-70.42,46.21-13.28,95.7-7.8,140.75-26.24,42.14-17.25,73.66-48.18,101.32-83.49,28.47-36.34,57.83-71.61,92.81-102,34.46-29.91,73.25-52.62,114.65-71.51,38.71-17.66,78.79-32.23,117.16-50.63,8.49-4.07,16.86-8.36,25.06-13,1.41-.78.15-2.94-1.26-2.16Z" />
      <path class="u"
        d="M1439.38,113.65c-37.24,19.54-77,33.82-115.69,50.11-40.65,17.11-80.7,36.18-116.33,62.46-36.2,26.7-67.85,59.16-96.17,94-15.13,18.61-28.81,38.36-44.45,56.55-15.21,17.7-32.6,33.6-52.36,46.1a190.39,190.39,0,0,1-66.45,26.31c-23.46,4.45-47.38,5.43-71,8.6-23.34,3.14-45.6,9.23-66.86,19.43-21.93,10.53-42.15,24.17-62.67,37.13-40,25.26-81.19,49.4-125.94,65.2-46.85,16.54-95.35,20-144.64,21.15-101.29,2.44-202.56,6.42-303.7,12.49q-19.26,1.16-38.51,2.41c-1.59.1-1.61,2.6,0,2.5q153.07-9.93,306.46-14c49.06-1.37,98.9-.45,146.93-12,44.66-10.72,86.27-31.06,125.71-54.2,41.9-24.58,81.7-56.89,128.93-70.67,46.52-13.57,96.52-7.63,141.93-26.12,42-17.1,73.71-48.3,101-83.66,29-37.55,58.35-74.14,94.09-105.59,34.69-30.52,73.81-53.83,115.73-73,39.35-18,80.15-32.57,119.52-50.49,8.71-4,17.31-8.12,25.78-12.56,1.42-.75.16-2.91-1.26-2.16Z" />
      <path class="v"
        d="M1451.57,119.32c-78.63,38.55-165.06,60-236.14,113.17-36.24,27.13-67.94,60-96,95.39-29.68,37.35-55.17,77.53-95.93,104.11a186.62,186.62,0,0,1-66.8,27.12c-24.49,4.72-49.5,5.54-74.17,8.89a219.54,219.54,0,0,0-65.85,19.28c-22.27,10.65-42.82,24.45-63.72,37.5-40.73,25.43-82.86,49.46-128.45,65.08-47.68,16.35-97,19.7-147,20.48C374.52,612,271.52,612.81,168.74,619q-19.55,1.17-39.09,2.6c-1.59.11-1.6,2.61,0,2.5,103.66-7.54,207.6-9.12,311.48-10.7,49.82-.76,100.41.27,149.25-11.07,45.43-10.55,87.91-30.71,128.15-53.88C761.26,523.8,801.74,491,849.7,477.16c47.26-13.67,98-7.26,144-26.52C1035,433.35,1066.35,402,1093,366.86c29.18-38.49,58.46-76.08,94.65-108.38,34.9-31.14,74.34-55.06,116.77-74.48,40-18.31,81.54-32.94,121.92-50.36,8.92-3.86,17.77-7.88,26.5-12.16,1.45-.71.18-2.86-1.26-2.16Z" />
      <path class="w"
        d="M1463.76,125c-79.87,36.5-166.39,58.56-237.74,111.89-37.38,27.94-70,62-98.53,98.82-29.4,37.93-54.8,78.67-95.52,105.81a183.54,183.54,0,0,1-67.81,27.76c-24.52,4.65-49.55,5.41-74.25,8.7a222.18,222.18,0,0,0-69,20.47c-22.12,10.8-42.63,24.53-63.55,37.41-41.17,25.36-83.88,49-129.91,64.34C578.57,616.49,528,619.66,476.82,620c-104.14.72-208.41-1.47-312.44,4.74q-19.84,1.18-39.66,2.78c-1.6.13-1.61,2.63,0,2.5,105.3-8.45,210.94-7.07,316.49-7.38,50.19-.14,101.11,1,150.41-9.9,46.62-10.3,90.37-30.41,131.76-53.82,43.22-24.43,84-57.3,132.2-71.47,47.54-14,98.85-7.11,145.18-26.35,42.36-17.59,74.14-50.31,101-86.52,29.17-39.26,58.4-77.54,94.92-110.39,35.23-31.69,75.13-56.07,118.14-75.69,40.83-18.63,83.27-33.28,124.74-50.36q12.81-5.27,25.42-11c1.47-.67.2-2.83-1.26-2.16Z" />
      <path class="x"
        d="M1476,130.67c-82.06,34.88-169.79,57.84-241.92,112.55-36.9,28-69.1,61.91-97.14,98.69-29.93,39.26-55.53,81.71-97.37,109.8a181.26,181.26,0,0,1-69.11,28c-24.92,4.52-50.32,5.15-75.38,8.58a222.81,222.81,0,0,0-69.78,21.37c-22.3,11.1-43.06,25-64.34,37.89C719.45,572.66,676.3,595.79,630,610.7c-49.59,16-100.77,19-152.53,19-105.8-.12-211.71-5.41-317.43.88q-20.15,1.2-40.24,3c-1.59.14-1.61,2.64,0,2.5,107-9.38,214.3-5,321.51-4.07,50.9.47,102.53,1.7,152.6-9,46.84-10,91-29.56,132.75-52.63,21.39-11.82,42.1-24.75,62.91-37.55C811.94,519,835,505.88,860.22,498.13c48.13-14.76,100.4-7.22,147.49-26.5,43.06-17.64,75.24-51.35,102.18-88.27,14.81-20.29,29.06-40.92,45.16-60.23a529.09,529.09,0,0,1,49.66-52.21c35.42-32.33,75.65-57.33,119.17-77.25,41.5-19,84.73-33.7,127.22-50.24,8.76-3.41,17.47-6.92,26.12-10.6,1.47-.63.2-2.78-1.26-2.16Z" />
      <path class="y"
        d="M1488.45,136.22c-83.94,33.1-172.66,57-245.46,112.64-36.73,28.08-68.78,62.07-96.49,99-30.3,40.38-55.93,84.37-98.5,113.47a178.89,178.89,0,0,1-70.15,28.54c-24.94,4.43-50.34,5-75.42,8.36a224.26,224.26,0,0,0-70.66,21.51c-23,11.4-44.42,25.7-66.43,38.87-42.59,25.46-87.05,48.55-134.64,63.13C580.56,637.1,528.89,639.8,476.78,639.3c-107-1-214.11-9.4-321.11-3q-20.44,1.23-40.83,3.17c-1.59.15-1.61,2.65,0,2.5,107.42-10.19,215.06-3.22,322.65-.84,52.11,1.15,105,2.73,156.41-7.51,47.26-9.41,92-28.32,134.33-51,22.18-11.9,43.64-25,65.09-38.16,22.35-13.7,45.2-27,70.25-35.2,48.67-15.9,101.93-7.68,149.87-26.61,43.5-17.18,76.19-51.15,103.07-88.38,15.18-21,29.51-42.56,45.88-62.69a525.54,525.54,0,0,1,49.42-53.07c35.53-33.06,76-58.85,120-79.14,41.87-19.32,85.58-34.08,128.83-49.93,9.53-3.49,19-7.06,28.48-10.79,1.48-.58.84-3-.66-2.41Z" />
      <path class="z"
        d="M1500.64,141.89C1415.37,173,1326,197.65,1252.88,253.79c-37.27,28.59-69.74,63.24-97.53,101-30.32,41.25-55.94,86.32-98.88,116.17A176,176,0,0,1,987,499.75c-25.57,4.64-51.65,5.09-77.39,8.48a225.66,225.66,0,0,0-71.29,21.61c-23,11.35-44.4,25.54-66.43,38.59-43.33,25.67-88.64,48.73-137,63.29-51.33,15.43-104.17,18.14-157.46,17.22-108.69-1.88-217.33-13.34-326.07-6.83q-20.75,1.25-41.41,3.36c-1.59.16-1.6,2.66,0,2.5,109.59-11.17,219.29-1.17,329,2.47,52.41,1.74,105.61,3.36,157.36-6.61,48.43-9.32,94.4-28.28,137.84-51.28,22.21-11.75,43.69-24.71,65.14-37.77,23.08-14,46.66-27.75,72.56-36,48.65-15.44,101.77-7.15,149.6-26,44.62-17.63,77.57-53.2,104.68-91.6,14.91-21.12,29-42.76,45.18-63a516,516,0,0,1,49.42-53.73c35.59-33.44,76.23-59.65,120.49-80.12,42.51-19.66,87-34.48,131.18-49.79,9.68-3.36,19.35-6.75,29-10.26,1.5-.55.85-3-.67-2.42Z" />
      <path class="aa"
        d="M1512.83,147.57c-86.79,29.2-177,54.73-250.6,111.56-38.28,29.54-71.51,65.49-99.54,104.81-30.09,42.23-56,88.09-99.73,118.12-21.84,15-46.23,24.27-72.33,28.51-25.23,4.09-50.88,4.52-76.19,8a227,227,0,0,0-72,22.57c-23.57,11.85-45.63,26.46-68.42,39.7-44.17,25.67-90.5,48.32-139.79,62.27C582.35,657.76,529,659.94,475.32,658.51c-109.68-2.91-219.19-17.2-329-10.57q-20.72,1.24-41.36,3.5c-1.59.18-1.6,2.68,0,2.5,110-11.94,219.87.49,329.81,5.57,53.67,2.48,108.22,4.49,161.36-5,48.83-8.76,95.39-27.05,139.38-49.66,23-11.82,45.26-24.94,67.37-38.34,23.06-14,46.46-27.81,72.12-36.48,49.2-16.61,103.16-7.82,151.9-26.16,45.17-17,78.66-52.81,105.76-91.51,15.36-21.94,29.6-44.61,46.09-65.74a510.21,510.21,0,0,1,50-55.36c36-34.33,77.31-61.28,122.39-82.13,42.87-19.84,87.79-34.63,132.63-49.28,9.92-3.25,19.85-6.5,29.75-9.83,1.52-.51.87-2.93-.67-2.41Z" />
      <path class="ab"
        d="M1525,153.24c-88.86,27.47-180.46,54.09-254.86,112.33-38.39,30.05-71.6,66.57-99.39,106.55-29.55,42.53-55.3,88.66-98.57,119.13-21.94,15.45-46.57,25-73,29.3-25.58,4.18-51.58,4.51-77.25,7.92a228.84,228.84,0,0,0-73,22.74c-23.92,12-46.31,26.75-69.49,40.06-44.94,25.82-92.16,48.34-142.27,62.12-52.73,14.49-106.93,16.59-161.3,14.74C364.54,664.34,253.54,647,142,653.73q-21,1.28-41.94,3.69c-1.58.18-1.6,2.69,0,2.5,111.7-12.87,223.17,2.41,334.73,8.8,54.42,3.13,109.73,5.27,163.68-4.07,49.59-8.59,97-26.69,141.8-49.31,23.41-11.82,46-25,68.52-38.52,23.41-14.09,47.15-28.12,73.18-36.86,49.9-16.75,104.68-7.49,154-26.4,44.92-17.22,78-53.33,104.78-92.07,15-21.79,28.85-44.38,44.84-65.51a503.23,503.23,0,0,1,51.1-57.86c36.15-35,77.76-62.6,123.32-83.79,43.56-20.26,89.33-35.17,135.17-49.29,10.18-3.14,20.37-6.24,30.54-9.39,1.54-.47.88-2.88-.66-2.41Z" />
      <path class="ac"
        d="M1537.22,158.92c-90.89,25.7-184,53.45-259.12,113.13-38.51,30.59-71.67,67.69-99.23,108.34-29.42,43.4-55.34,90.48-99.2,121.32-21.6,15.2-45.86,24.55-71.87,28.82-26.68,4.38-53.83,4.53-80.59,8.19a228.93,228.93,0,0,0-71.78,22.6c-24.26,12.12-47,27-70.55,40.42-45.72,26-93.83,48.36-144.75,62C586.57,678,531.58,680,476.46,677.75c-113-4.67-225.5-25.06-338.87-18.23q-21.32,1.29-42.51,3.88c-1.58.19-1.6,2.69,0,2.5,113.47-13.8,226.49,4.32,339.65,12,55.16,3.76,111.23,6,166-3.11,50.35-8.42,98.6-26.33,144.21-49,23.82-11.83,46.84-25.06,69.66-38.7,23.78-14.21,47.85-28.42,74.25-37.24,50.49-16.86,105.94-7.18,155.79-26.51,44.8-17.37,77.67-53.82,104.13-92.68,15.13-22.22,28.9-45.35,44.91-67a495.32,495.32,0,0,1,50.9-58.7c36.27-35.66,78.19-63.94,124.21-85.48,44.25-20.71,90.89-35.74,137.75-49.32q15.65-4.54,31.34-8.94a1.25,1.25,0,0,0-.67-2.41Z" />
      <path class="ad"
        d="M1549.42,164.59c-92.07,23.7-186,52.27-261.45,112.41-39.48,31.45-73.2,69.72-101,111.76-29.29,44.26-55.39,92.31-99.87,123.48-22,15.44-46.8,24.6-73.31,28.69-26.32,4.06-53,4.21-79.43,7.78-26,3.51-50.29,11.58-73.65,23.34-24.15,12.14-46.86,26.93-70.41,40.16C743.8,638.33,694.8,660.59,643.06,674c-55.29,14.35-112,16.09-168.82,13.21-113.76-5.77-226.77-28.8-341-21.92q-21.6,1.31-43.08,4.07c-1.57.2-1.59,2.7,0,2.5C205,657.19,319.2,678,433.57,687.06c55.85,4.44,112.62,6.94,168.18-1.85C652.89,677.12,702,659.53,748.49,637c24.23-11.77,47.66-25,70.82-38.75,24-14.26,48.25-28.66,74.8-37.75,51.27-17.53,107.7-7.32,158.4-26.85,45.55-17.55,78.57-55,105.07-94.65,15.16-22.68,28.92-46.29,45-68.37a488.82,488.82,0,0,1,50.83-59.43c36.32-36.06,78.41-64.77,124.67-86.52,44.91-21.11,92.37-36.24,140.17-49.25q15.9-4.32,31.85-8.4a1.25,1.25,0,0,0-.66-2.41Z" />
      <path class="ae"
        d="M1561.61,170.27c-94,21.9-189.53,51.64-265.74,113.26-39.62,32.05-73.21,70.94-100.82,113.68-29.16,45.13-55.44,94.16-100.59,125.62-22.27,15.52-47.33,24.42-74.09,28.38-26.2,3.88-52.79,4-79,7.5s-50.63,11.65-74.17,23.46c-24.49,12.27-47.53,27.21-71.46,40.51-47.26,26.26-97.15,48.4-149.7,61.65-56.12,14.16-113.69,15.82-171.23,12.5-115.42-6.67-229.85-32.71-345.91-25.72q-21.92,1.3-43.66,4.25c-1.57.21-1.59,2.71,0,2.5,116.66-15.63,232.38,8,348.33,18.4,56.59,5.08,114.13,7.73,170.51-.88,51.9-7.92,101.88-25.32,149.14-47.88,24.64-11.77,48.47-25,72-38.92,24.38-14.39,49-29,75.87-38.13,51.18-17.43,107.37-7.27,158.11-26.17,46.45-17.3,79.86-55.57,106.49-95.9,15.29-23.14,29-47.28,45.08-69.91a482.53,482.53,0,0,1,50.61-60.28c36.41-36.74,78.79-66.12,125.49-88.23,45.62-21.6,94-36.88,142.81-49.34,10.86-2.78,21.75-5.4,32.66-7.94,1.57-.37.91-2.78-.66-2.41Z" />
      <path class="af"
        d="M1573.8,175.94c-95.32,19.94-191.83,50.57-268.46,112.88-40.48,32.9-74.41,72.91-102.21,116.94-29,46-55.51,95.93-101.34,127.71-23.35,16.2-49.82,24.79-77.83,28.42-25.85,3.35-52,3.5-77.81,7.12-55.16,7.73-99.64,39.36-147.41,65.44-48.11,26.26-99,48-152.4,60.82-57.07,13.67-115.58,14.89-173.89,11-117.1-7.89-233-36.85-350.9-29.16q-20.89,1.36-41.62,4.3c-1.59.22-.91,2.63.66,2.41C199.41,667.17,317.07,694,435,705.6c57.28,5.66,115.56,8.35,172.69-.24,52.64-7.91,103.42-25.24,151.45-47.91,25-11.82,49.23-25.22,73.1-39.22,24.34-14.27,48.89-28.71,75.73-37.8,51.47-17.45,107.91-7.13,159-25.92,47.28-17.41,80.81-56.65,107.52-97.78,15.34-23.63,29.08-48.29,45.2-71.41a475.66,475.66,0,0,1,51.39-61.9c36.83-37.35,79.88-67.16,127.31-89.46,45.61-21.45,94-36.53,143-48.21q16.53-3.94,33.18-7.4c1.57-.33.9-2.74-.67-2.41Z" />
      <path class="ag"
        d="M1586,181.62c-97.28,18.12-195.47,50-272.81,113.81-40.63,33.54-74.37,74.2-102,119-28.89,46.87-55.59,97.82-102.17,129.77-23.84,16.35-50.83,24.59-79.32,28.06-26.2,3.19-52.7,3.27-78.83,7.1-55.53,8.14-100.64,40.85-149,66.77s-99.6,47.19-153.21,59.6c-57.74,13.37-116.9,14.48-175.78,10.11C354.18,707,236.9,675,117.14,682.88,103,683.8,89,685.32,75,687.36c-1.59.23-.91,2.64.66,2.41,120.64-17.58,239.84,12.1,359.29,25.05,58,6.28,117,9.12,175,.73,52.78-7.64,103.83-24.48,152.16-46.76C787.27,657.16,811.65,644,835.63,630c24.73-14.4,49.54-29.19,76.66-38.72,52.08-18.3,109.14-7.74,161.07-26.08,48.3-17.05,82.19-57.05,109.11-98.89,15.5-24.09,29.19-49.3,45.3-73a468.84,468.84,0,0,1,51.12-62.79c73.77-76,171.81-116.86,273.75-139.57,11.3-2.52,22.64-4.8,34-6.92,1.58-.3.91-2.71-.66-2.41Z" />
      <path class="ah"
        d="M1598.19,187.29c-99.65,16.37-200,49.69-278.14,115.62-40.39,34-73.53,75.09-100.74,120.23-28.94,48-56.1,100.55-104.09,132.49-24.08,16-51.26,23.71-79.77,26.92-27,3-54.33,3-81.21,7.34-55.81,8.92-101.63,43-150.61,68.61-49.7,26-102.35,46.91-157.32,58.67C588,729.65,528.26,730.08,469,725c-119.12-10.19-236.58-44.38-356.93-36.31Q91,690.14,70.05,693.33c-1.59.24-.91,2.65.66,2.41C191.76,677.43,311.2,709,430.79,723.54,489.85,730.7,550,734,609.17,726.14,662.41,719.05,714.06,702.86,763,681a810.64,810.64,0,0,0,73.48-37.77c25.6-14.74,51-30.27,78.82-40.58,52.66-19.5,110.17-9,163.11-26.31,50-16.36,84.7-57.42,112.07-100.38,15.37-24.13,28.86-49.41,44.6-73.32a462.73,462.73,0,0,1,50.77-64c74.19-78.19,174-120.85,278.11-142.46q17.37-3.6,34.87-6.45c1.59-.26.92-2.67-.66-2.41Z" />
      <path class="ai"
        d="M1610.38,193c-101.13,14.46-202.78,48.81-281.5,115.8-40.77,34.69-73.86,76.47-101,122.44-28,47.32-54.24,98.85-100.14,131.56-24.19,17.24-51.85,25.94-81.12,29.48-27.34,3.31-55,3.16-82.26,7.16-57.29,8.4-104,42.83-154.18,69-50,26-103.08,46.77-158.34,58.54C592.29,739.57,531.37,740.18,471,734.7c-121.28-11-240.54-48.44-363.25-40.19-14.27,1-28.47,2.59-42.59,4.8-1.59.25-.91,2.66.66,2.41,123.37-19.35,244.82,15.45,366.44,31.18,60.21,7.79,121.6,11.14,182,3.05,53.49-7.17,105.45-23.21,154.74-45a814.28,814.28,0,0,0,75.86-38.8c25.91-14.86,51.71-30.41,80-40.46,53.82-19.14,113-7.46,166.52-26.89,48.63-17.64,82-58.72,108.61-101.27,15.19-24.33,28.56-49.75,44.12-73.85a456.79,456.79,0,0,1,50.65-64.85c74.45-79.34,175.49-123.28,281-143.58,11.74-2.26,23.55-4.2,35.39-5.9,1.58-.22.91-2.63-.67-2.41Z" />
      <path class="aj"
        d="M1622.91,198.59c-102.29,12.51-205,47.56-284.21,115.18-41,35-74.2,77.26-101.28,123.78-28.25,48.51-54.56,101.8-101.45,135.28-24.26,17.32-52.08,26-81.46,29.47-27.19,3.23-54.68,3.08-81.81,6.89-58,8.16-105.17,42.72-156,69-51.2,26.47-105.53,47.3-162.06,59-60.34,12.48-122.09,13-183.24,7.06-122.94-12-243.54-52.36-368.12-44q-21.67,1.47-43.12,5c-1.58.26-.91,2.67.66,2.41,125.63-20.37,249,17.63,372.51,34.55,60.1,8.23,121.39,11.72,181.75,4,54.26-6.88,107-22.57,157.18-44.25a787.86,787.86,0,0,0,77-38.78c26.3-15,52.41-30.79,81-41.11,53.67-19.37,112.3-8.09,166.07-26.17,49.85-16.77,84-58.28,110.84-101.51,15.35-24.7,28.71-50.57,44.13-75.23a454.41,454.41,0,0,1,50.31-66.2c74.2-80.92,176.07-126.72,282.89-146.15q19.11-3.48,38.39-5.81c1.57-.19,1.59-2.69,0-2.5Z" />
      <path class="ak"
        d="M1635.1,204.27c-103.52,10.58-207.38,46.5-287.08,114.94-41.9,36-75.2,79.38-102.48,127.22-28.12,49.32-54.66,103.74-102.43,137.27-24.77,17.39-53.13,25.65-82.94,28.92-27.56,3-55.4,2.83-82.85,6.91C918.89,628.2,871,663.85,819.49,690c-52.08,26.4-107.37,46.84-164.76,58.06-61.29,12-124,12.1-185.91,5.45-123.53-13.27-244.51-55.9-369.94-47.38-14.64,1-29.19,2.75-43.65,5.17-1.58.26-.91,2.67.67,2.41,126.52-21.18,250.57,19,374.7,37.37,60.77,9,122.79,12.91,184,5.76,55-6.42,108.74-21.64,159.73-43.12a766.32,766.32,0,0,0,78.19-38.58c26.74-15.05,53.13-31.21,82-42,27.92-10.42,57-13.32,86.52-15.1,27.4-1.64,55.29-2.9,81.62-11.33,50.94-16.31,85.53-58.39,112.62-102.39,15.46-25.1,28.84-51.41,44.19-76.58a451.32,451.32,0,0,1,50.85-68.23C1384.7,277.32,1487.9,230.15,1596.16,212q19.38-3.26,38.94-5.22c1.59-.16,1.6-2.67,0-2.5Z" />
      <path class="al"
        d="M1647.3,209.94c-105.43,8.73-211.12,45.94-291.5,116.06-42.08,36.71-75,80.82-102.14,129.4-27.81,49.77-54.36,104.76-102.36,138.43-25.13,17.63-53.92,25.77-84.15,29-27.9,2.94-56.09,2.67-83.87,6.88-59,9-107.56,45.34-159.79,71.43-52.5,26.22-108.24,46.26-166,57.22-62.11,11.8-125.63,11.83-188.3,4.69-125.17-14.26-247.46-59.8-374.78-51.12a434.21,434.21,0,0,0-44.17,5.35c-1.58.28-.91,2.69.67,2.41,128.35-22.13,254,20.85,379.58,40.58,61,9.58,123.31,13.65,184.85,6.91,57.11-6.26,112.91-21.74,165.84-43.91a749.75,749.75,0,0,0,75.68-37c27.15-15.14,53.85-31.54,83-42.59,28.24-10.7,57.6-13.79,87.54-15.54,27.27-1.59,55-2.69,81.33-10.7,52.51-16,87.78-59.16,115.22-104.4,15.24-25.14,28.45-51.44,43.48-76.7a451.82,451.82,0,0,1,50.61-69.45c74.61-83.86,179.34-132.7,289.28-149.71,13.24-2,26.54-3.59,39.9-4.7,1.59-.13,1.6-2.63,0-2.5Z" />
      <path class="am"
        d="M1659.49,215.62c-106.4,6.81-213.08,44.7-293.88,115.41-42.37,37.08-75.32,81.66-102.38,130.81-28.07,51-54.67,107.79-103.76,142.16-25.48,17.84-54.74,25.86-85.37,28.94-28.25,2.85-56.79,2.51-84.9,6.88-59.59,9.27-108.79,46.37-161.76,72.42-53.76,26.44-110.91,46.31-169.94,56.89-63.06,11.3-127.53,10.9-191,3-125.89-15.63-248.77-63.41-377.12-54.42a421.11,421.11,0,0,0-44.06,5.49c-1.58.28-.91,2.69.67,2.41,129.11-22.92,255.35,22,381.35,43.25,62.21,10.49,125.78,15,188.68,8.58,57.44-5.88,113.7-20.82,167.12-42.6a736.15,736.15,0,0,0,78.13-37.5c27.56-15.22,54.58-31.87,84.07-43.2,28.57-11,58.21-14.27,88.56-16,28.07-1.59,56.65-2.57,83.73-10.89,52.74-16.22,87.91-59.91,115.16-105.56,15.53-26,28.94-53.2,44.28-79.32a448.17,448.17,0,0,1,50.67-70.19c74.74-84.49,180.44-134.33,291.26-150,13.43-1.9,26.93-3.24,40.46-4.1,1.6-.11,1.61-2.61,0-2.5Z" />
      <path class="an"
        d="M1671.68,221.29c-108.29,5-216.82,44.14-298.31,116.58-42.55,37.83-75.08,83.17-102,133.07C1243.59,522.35,1217,579.73,1167.6,614.2c-25.84,18-55.55,25.9-86.58,28.89-28.61,2.76-57.49,2.37-85.92,6.89-60.17,9.57-110,47.4-163.74,73.4-54.17,26.23-111.74,45.71-171.1,56-63.88,11.1-129.17,10.62-193.36,2.25C339.4,765,215.22,714.35,85,723.53a407.46,407.46,0,0,0-44.58,5.67c-1.58.29-.91,2.7.67,2.41C172,707.73,299.81,755.47,427.27,778c62.39,11,126.19,15.77,189.4,9.75,58.74-5.6,116.38-20.42,171.09-42.39a730,730,0,0,0,77.9-36.88c28-15.3,55.31-32.19,85.12-43.81,28.88-11.25,58.81-14.76,89.56-16.46,27.94-1.56,56.36-2.38,83.42-10.26,54.36-15.83,90.24-60.55,117.85-107.48,15.31-26,28.57-53.2,43.58-79.4a449.44,449.44,0,0,1,50.43-71.47c75.36-86.77,183.63-138.52,296.93-152.56q19.5-2.41,39.13-3.28c1.6-.07,1.61-2.57,0-2.5Z" />
      <path class="ao"
        d="M1683.88,227c-109.25,3.07-218.78,42.88-300.71,115.94-43.26,38.59-75.92,84.89-103,135.87-27.8,52.35-54.53,111.12-104.84,145.9-51.84,35.82-114,26-172.95,35.24-60.88,9.56-111.38,47.87-165.81,74-55.42,26.56-114.36,46-175,56.06-66.25,11-134,10-200.35.37-126.87-18.44-250.65-70.22-380.65-61a400.21,400.21,0,0,0-45.1,5.86c-1.58.29-.91,2.7.67,2.41C168.49,712.82,297.53,763,426,787c63.47,11.82,128.41,16.85,192.84,11,59-5.39,117-19.81,172.1-41.47a721.14,721.14,0,0,0,80.38-37.55c28.36-15.4,56-32.47,86.2-44.19,29.24-11.37,59.54-14.84,90.65-16.5,28.75-1.54,58-2.35,85.78-10.77,53.36-16.19,88.67-60.49,115.71-106.89,15.65-26.85,29.11-54.9,44.35-82A449.67,449.67,0,0,1,1344.37,386c75.53-88,185.19-141.13,299.84-153.86,13.18-1.47,26.41-2.34,39.67-2.71,1.6-.05,1.61-2.55,0-2.5Z" />
      <path class="ap"
        d="M1696.07,232.64c-111.6,1.22-223.46,42.66-306.18,118.11-43,39.19-74.83,86-101.58,137.29-27.48,52.73-54.24,112-104.82,146.85-52.53,36.16-115.67,25.57-175.25,35.19C946.78,680,895.64,719,840.45,745c-56.73,26.75-117.09,46-179.11,55.66-65.6,10.24-132.62,9.12-198.2-.68-129-19.29-254.58-74.35-387-64.88a387.23,387.23,0,0,0-45.62,6c-1.57.3-.91,2.71.67,2.41C165.37,717.84,296,770.85,425.9,796.08c63.16,12.28,127.79,17.54,192,12.26,60.33-5,119.74-19.1,176.2-40.81a712.15,712.15,0,0,0,81.53-37.47c28.78-15.46,56.76-32.77,87.25-44.78,29.57-11.65,60.13-15.36,91.65-17,29.09-1.52,58.71-2.17,86.85-10.51,53.84-16,89.39-60.39,116.42-107.2,30.75-53.24,54.43-109.56,94.4-157,75.61-89.8,186.91-144.66,303.25-156.21,13.49-1.34,27-2,40.6-2.19a1.25,1.25,0,0,0,0-2.5Z" />
      <path class="aq"
        d="M1708.26,238.31c-113-.64-226.33,41.75-309.61,118.44-43.21,39.79-74.84,87.25-101.5,139.24-27.46,53.53-54.23,114-105.55,149.13-52.86,36.21-116.47,25.32-176.33,34.93-62.41,10-114.41,49.8-170.6,75.93-118.85,55.27-250.06,73.59-379.58,53.74-131.19-20.11-258.52-78.5-393.36-68.81a383.33,383.33,0,0,0-46.14,6.22c-1.57.31-.91,2.72.67,2.41,136.54-26.8,269.25,29.57,401.12,56,63.87,12.8,129.28,18.09,194.31,12.83A648.4,648.4,0,0,0,799.61,777.7a707.9,707.9,0,0,0,81.7-37.23c29.16-15.56,57.48-33.05,88.33-45.17,29.57-11.62,60.12-15.38,91.64-17,28.91-1.47,58.34-2,86.39-9.91,55.37-15.64,91.58-60.89,119-108.94,30.77-54,54.23-111.23,94.32-159.44,75.74-91.09,188.49-147.38,306.16-157.59,13.69-1.19,27.41-1.69,41.14-1.62a1.25,1.25,0,0,0,0-2.5Z" />
      <path class="ar"
        d="M1720.46,244c-115.21-2.52-230.76,41.43-314.76,120.39A429,429,0,0,0,1350.11,428c-18,25.25-32.39,52.59-46.28,80.23C1276.6,562.43,1249.1,623.7,1196.2,657.7,1141.94,692.56,1077,679.84,1016.67,691c-62.55,11.58-115.3,52.35-172.39,78-120.92,54.39-254.76,71.15-385.47,49.09-130.52-22-257.51-81.31-392.16-71.35a373.24,373.24,0,0,0-46,6.35c-1.57.32-.9,2.73.67,2.41,136.28-27.36,268.85,29.78,400,57.9,126,27,255.68,21.21,377.11-23.07a701.32,701.32,0,0,0,83-36.57c28.89-15,56.69-32.26,86.68-45.08,30.56-13.07,61.92-18.32,94.95-20.1,29.28-1.59,59-1.67,87.66-8.78,56.92-14.14,94.45-58.62,122.5-107.56,31.4-54.79,54.35-113.68,94.39-163.22,75.76-93.73,190.73-152.39,310.7-161.47,14-1.06,28.06-1.39,42.11-1.08a1.25,1.25,0,0,0,0-2.5Z" />
      <path class="as"
        d="M1732.65,249.66c-116.13-4.37-232.71,40.15-317.18,119.81a427,427,0,0,0-55.75,64.19c-18.06,25.57-32.46,53.28-46.34,81.27-27.26,55-54.57,117.56-108,152.3-54.74,35.61-120.5,22.52-181.5,33.7-63.27,11.6-116.65,52.86-174.49,78.6a674.75,674.75,0,0,1-390.32,48c-132-23.09-260.36-85.14-396.86-75a367.68,367.68,0,0,0-46.5,6.54c-1.58.32-.91,2.73.66,2.41,138.07-28.32,272.26,31.59,404.77,61C548.32,850.74,680,845,802.92,800.87a699,699,0,0,0,84.15-36.66c30.08-15.53,59-33.52,90.29-46.54,30.13-12.53,61.07-17.41,93.5-19.1,29.6-1.55,59.7-1.58,88.63-8.82,57.71-14.43,95.3-60,123.31-109.75,31.3-55.62,54.16-115.33,94.48-165.52C1453.15,320,1569.17,260.39,1690,252.67a421.4,421.4,0,0,1,42.65-.51c1.61.06,1.61-2.44,0-2.5Z" />
      <path class="at"
        d="M1744.84,255.34c-117.51-6.22-235.64,39.19-320.62,120.23a426.65,426.65,0,0,0-55.69,64.92c-18.42,26.45-32.9,55.16-47,84.06-27,55.34-54.36,118.33-108.13,153-55.46,35.78-122.17,22-183.78,33.59-31,5.86-59.82,19.31-87.53,34.05-29.46,15.67-58.38,32.08-89,45.48A682,682,0,0,1,459.34,837c-133.57-24.16-263.19-89-401.55-78.62a359.78,359.78,0,0,0-47,6.72c-1.58.33-.91,2.74.66,2.41,139.29-29.17,274.63,32.92,407.9,63.74,128.36,29.68,262,24.46,386.58-19.3a695.84,695.84,0,0,0,85.35-36.57c30.08-15.34,58.91-33.21,90-46.47,30.85-13.15,62.44-18.53,95.79-20.27,30-1.56,60.35-1.47,89.68-8.57,58.13-14.08,96-59.53,124.1-109.65,31.77-56.73,54.47-117.91,95.19-169.32,75.82-95.71,193.15-156.74,315.16-163.28a409.66,409.66,0,0,1,43.63,0c1.61.08,1.61-2.42,0-2.5Z" />
      <path class="au"
        d="M1757,261c-118.93-8.06-238.54,38.27-324.11,120.65a423.34,423.34,0,0,0-56.46,66.86c-17.73,26.07-31.73,54.29-45.37,82.65-27,56.22-54.21,120.51-108.52,155.94-56,36.5-123.46,22.32-185.77,34-31.4,5.87-60.48,19.47-88.52,34.33-29.81,15.81-59.09,32.33-90.1,45.77-125.84,54.56-267.27,70.41-402,44.56-133.8-25.66-263.8-92-402.82-81.59A355.83,355.83,0,0,0,5.84,771c-1.58.34-.91,2.75.66,2.41,140.7-30,277.35,34.4,411.58,66.58C547.44,871,682.85,866.26,808.89,823a694.29,694.29,0,0,0,88-37.17c30.45-15.43,59.62-33.48,91.09-46.86,31.21-13.27,63.14-18.66,96.87-20.35,30.78-1.54,62.07-1.36,92.15-9,58.71-14.83,96.35-61.86,124.19-112.79,30.36-55.55,52.35-115.31,91.14-166,75.72-98.91,195.9-162.69,320.57-168a399.51,399.51,0,0,1,44.18.62c1.6.11,1.6-2.39,0-2.5Z" />
      <path class="av"
        d="M1769.23,266.69c-116.89-9.68-234.52,34.72-320.13,114-43.51,40.3-75.31,88.52-101,141.63-24.42,50.43-45.85,105.1-84.38,146.85-19.91,21.58-44.44,38.05-72.74,46.35-34.94,10.24-71.84,8.8-107.82,11-33.79,2.09-65.42,9.23-96.37,23.11-32.6,14.63-63,33.56-95.17,49.11-129.38,62.6-278.34,83.83-420,59.19-140.54-24.44-275.31-98.46-420.89-88.16A350.49,350.49,0,0,0,.9,777c-1.57.34-.91,2.76.66,2.41,146.44-31.94,288.17,39.8,427.75,72.4,136.08,31.8,280,22.22,410.54-27.93,32.07-12.32,62.8-27.36,93-43.74,31.48-17.08,63.27-34.84,98.22-43.75,65.45-16.68,138,2.05,198.11-35.13,45.32-28,72.3-76.73,95.08-123.23,26.06-53.22,49.08-107.32,87-153.55,76.35-93.06,193.24-153,314-156.54a391.73,391.73,0,0,1,44,1.23c1.6.13,1.59-2.37,0-2.5Z" />
    </svg>