    <svg xmlns="http://www.w3.org/2000/svg" viewBox="0 0 1186.65 976.02">
      <defs>
        <style>
          .a {
            fill: #a0c3d2;
          }

          .b {
            fill: #a2c0d0;
          }

          .c {
            fill: #a5becd;
          }

          .d {
            fill: #a7bcca;
          }

          .e {
            fill: #a9b9c7;
          }

          .f {
            fill: #acb7c4;
          }

          .g {
            fill: #aeb4c2;
          }

          .h {
            fill: #b0b2bf;
          }

          .i {
            fill: #b2afbc;
          }

          .j {
            fill: #b4adb9;
          }

          .k {
            fill: #b6aab7;
          }

          .l {
            fill: #b8a7b4;
          }

          .m {
            fill: #baa5b1;
          }

          .n {
            fill: #bba2af;
          }

          .o {
            fill: #bd9fac;
          }

          .p {
            fill: #bf9da9;
          }

          .q {
            fill: #c19aa7;
          }

          .r {
            fill: #c297a4;
          }

          .s {
            fill: #c494a2;
          }

          .t {
            fill: #c5929f;
          }

          .u {
            fill: #c78f9d;
          }

          .v {
            fill: #c88c9a;
          }

          .w {
            fill: #ca8a98;
          }

          .x {
            fill: #cb8796;
          }

          .y {
            fill: #cd8493;
          }

          .z {
            fill: #ce8191;
          }

          .aa {
            fill: #d07f8e;
          }

          .ab {
            fill: #d17c8c;
          }

          .ac {
            fill: #d2798a;
          }

          .ad {
            fill: #d37688;
          }

          .ae {
            fill: #d57385;
          }

          .af {
            fill: #d67083;
          }

          .ag {
            fill: #d76c81;
          }

          .ah {
            fill: #d9697f;
          }

          .ai {
            fill: #da667c;
          }

          .aj {
            fill: #db627a;
          }

          .ak {
            fill: #dc5e78;
          }

          .al {
            fill: #de5a76;
          }

          .am {
            fill: #df5674;
          }

          .an {
            fill: #e05272;
          }

          .ao {
            fill: #e14d70;
          }

          .ap {
            fill: #e2496d;
          }

          .aq {
            fill: #e3446b;
          }

          .ar {
            fill: #e43f69;
          }

          .as {
            fill: #e53967;
          }

          .at {
            fill: #e73265;
          }

          .au {
            fill: #e82b64;
          }

          .av {
            fill: #e92262;
          }

        </style>
      </defs>
      <path class="a"
        d="M2.17,433.36c26.44-23.78,52-49.29,69.94-80.32,17.27-29.93,25.12-63.71,35.47-96.36,5.15-16.25,11-32.4,19.17-47.39S146.29,182,157.23,169C168.05,156.1,176.33,142.6,180,126c2-9.26,3.34-18.78,7.15-27.55a58.33,58.33,0,0,1,12.2-18c21.45-21.46,54-23.46,81.69-15.44,18.06,5.23,35,13.5,52.3,20.78,16.76,7.07,33.83,12.83,51.93,15.22a171.33,171.33,0,0,0,98.11-16.74c16-8,30-18.62,43.83-29.86C542,42.43,556.86,30.56,574.54,23,609.8,7.8,649.27,8.14,686.94,7.06l126.5-3.64,32-.92c1.61,0,1.62-2.55,0-2.5l-129,3.71c-20.36.58-40.74,1-61.1,1.85-18.2.78-36.48,2.25-54.28,6.3a146.8,146.8,0,0,0-49.63,20.89C535.87,43.19,522.21,56.15,507,67.11,477.74,88.23,442.24,100.16,406.08,100a164.77,164.77,0,0,1-52.75-9c-17.82-6.11-34.7-14.59-52.2-21.52-15.2-6-31.26-11.22-47.76-11.47a83.68,83.68,0,0,0-38.66,8.51,63.34,63.34,0,0,0-28,27.11c-8.38,16.18-7.58,35.2-15.87,51.44-7.71,15.12-20.05,27-30.68,40a166,166,0,0,0-24.24,41.11c-13.41,31.87-20,66.1-32.75,98.19-13.76,34.5-36.75,63.35-63.2,89C13.57,419.61,7,425.64.4,431.59c-1.2,1.08.57,2.85,1.77,1.77Z" />
      <path class="b"
        d="M852.72,7.45C812.91,8.27,773.09,9,733.29,10q-29.25.74-58.47,2c-18.3.85-36.65,2-54.71,5.26-16.75,3-33.23,7.9-48.36,15.78-15.64,8.14-29.1,19.6-42.69,30.69-14.16,11.55-28.8,22.11-45.4,29.91a171,171,0,0,1-50.89,14.85,166.21,166.21,0,0,1-56.95-2.61c-18.15-4-35.22-11.44-52.32-18.55C307,80.47,290.06,73.73,272.24,71.08a84.92,84.92,0,0,0-48.47,6.76,66.1,66.1,0,0,0-32.1,32c-7.15,15.67-7.08,33.49-15.25,48.82-7.92,14.85-20.32,26.49-31.14,39.15a168.27,168.27,0,0,0-25.73,41.58C104.75,272.76,97.2,308.84,82,342.06c-14.61,32-36.91,59.21-61.72,83.82-5.91,5.86-12,11.59-18.06,17.25-1.18,1.1.59,2.86,1.77,1.77C28.4,422.27,52,398.29,69.77,370c19.42-30.79,29-65.72,40.63-99.85,5.68-16.62,12-33.14,20.84-48.37,8.45-14.57,19.79-26.47,30.8-39.05,10.43-11.92,19.17-24.67,23.18-40.17,2.15-8.31,3.39-16.86,6.09-25a62.6,62.6,0,0,1,13.62-23.08C216.75,81.83,233.48,74.82,250.52,73c18.91-2,37.51,3.27,55.06,9.83,17,6.34,33.36,14.18,50.52,20a172.68,172.68,0,0,0,53.76,9.43,174.61,174.61,0,0,0,95.83-28c14.61-9.41,27.5-21.09,41.15-31.77C561.66,41,577.56,31.67,595.53,25.88c35.2-11.34,73.33-11.34,109.93-12.6,39.55-1.35,79.13-1.92,118.69-2.74L852.72,10a1.25,1.25,0,0,0,0-2.5Z" />
      <path class="c"
        d="M860,14.9c-39.48.5-79,.8-118.43,1.6q-29.85.6-59.63,2.4C664,20,646.16,21.47,628.57,24.75c-16.79,3.14-33.31,8.06-48.55,15.86-15.57,8-29,19.13-42.46,30.19-14.22,11.71-28.74,22.72-45.3,30.93a173.53,173.53,0,0,1-49.8,15.93,167.2,167.2,0,0,1-57.32-1c-18.4-3.5-35.78-10.44-53.11-17.34-31.94-12.7-66.81-25.19-100.17-9.76a69.08,69.08,0,0,0-32.69,31.25c-7.83,15.48-7.95,33.48-15.83,48.93-7.64,15-20,26.58-31.18,38.85a172.12,172.12,0,0,0-27.91,41.64c-15.84,32.86-24.42,68.66-40,101.63-15.3,32.3-37.63,60.1-62.54,85.48C15.92,443.25,10,449,4.11,454.67c-1.16,1.12.6,2.88,1.77,1.77C30.31,433,53.87,408.3,72,379.53c19.24-30.59,29.66-65,42.18-98.62,6.18-16.59,13.07-33.05,22.52-48.09,9.1-14.47,21.18-26.13,32.45-38.84,10.7-12.06,18.82-25,22.8-40.72,2.11-8.33,3.55-16.87,6.65-24.92a66.47,66.47,0,0,1,13.88-22c12.11-12.65,29-19.81,46.35-21.38,18.8-1.72,37.38,3.58,54.88,9.94s34.27,14,52,19.46a173.75,173.75,0,0,0,53.83,7.74c33.7-.57,66.83-11.51,94.75-30.3,14.84-10,28-22.19,42.16-33a157.58,157.58,0,0,1,47.53-25.34c34.78-11.22,72.52-12.23,108.74-13.64,39.49-1.55,79.05-1.56,118.56-2.06L860,17.4a1.25,1.25,0,0,0,0-2.5Z" />
      <path class="d"
        d="M867.18,22.34c-39.7.21-79.42.09-119.12.73-37.41.59-75.72,2-112.5,9.39-16.56,3.33-32.85,8.34-47.93,16-15.68,8-29.26,19.15-42.75,30.32-13.88,11.5-28,22.52-44,30.9a174.74,174.74,0,0,1-49.78,17.16,168.3,168.3,0,0,1-57.34.36c-18.61-3.08-36.24-9.57-53.8-16.24-32.35-12.27-67.78-25-101.27-9.09a71.78,71.78,0,0,0-32.25,30.62c-8.31,15.38-8.77,33.37-16.46,48.95C182.5,196.58,170,208.2,158.52,220.2a176.06,176.06,0,0,0-28.79,39.64c-17.32,32.65-27,68.71-43.29,101.87-15.9,32.39-38.09,60.63-62.9,86.66-5.76,6-11.64,12-17.58,17.84-1.14,1.13.63,2.9,1.77,1.77,24.31-24,47.72-49.32,66-78.32,19.58-31,31-65.68,44.75-99.42,6.65-16.3,14.12-32.42,24.11-47,9.66-14.09,22.31-25.35,33.62-38,10.52-11.78,18-24.49,22-39.83,2.27-8.75,4-17.68,7.6-26a70.14,70.14,0,0,1,14.06-21.09c12.15-12.53,29-19.74,46.23-21.31,18.87-1.71,37.67,3.62,55.3,9.82,17.25,6.06,34.09,13.37,51.71,18.36a176.41,176.41,0,0,0,54.35,6.74c33.86-1.22,66.86-12.87,94.61-32.17,14.57-10.14,27.58-22.27,41.68-33A161.87,161.87,0,0,1,610.89,41.5c35-11.66,73.24-13.64,109.84-15.18,39.14-1.65,78.39-1.13,117.56-1.33l28.89-.15a1.25,1.25,0,0,0,0-2.5Z" />
      <path class="e"
        d="M874.42,29.79c-39.94-.1-79.89-.63-119.82-.16-37.09.44-75,2.62-111.31,10.35-16.84,3.58-33.4,8.81-48.73,16.72C578.82,64.83,565.17,76,551.62,87.29c-14.15,11.77-28.47,23.11-44.8,31.74a176.18,176.18,0,0,1-49.28,17.4,169.14,169.14,0,0,1-56.78,1c-18.76-2.82-36.6-9-54.36-15.45C314.26,110.37,279,98.1,246,113.86a74.31,74.31,0,0,0-32.32,30.34c-9,15.71-9.69,34.23-17.74,50.24-7.59,15.09-20.23,26.59-32,38.38a181.29,181.29,0,0,0-30.12,39.39c-17.76,31.5-28.46,66.42-44.79,98.63-16.58,32.71-38.8,61.64-63.64,88.5-5.76,6.23-11.65,12.35-17.59,18.41-1.13,1.15.64,2.92,1.77,1.77C33.76,454.86,57,429,75.56,399.75c19.84-31.21,32.25-65.85,47.19-99.47,6.94-15.64,14.71-31,24.8-44.91,9.9-13.6,22.62-24.46,34-36.76,11.12-12,18.81-25,23.09-40.89,2.49-9.22,4.54-18.57,8.64-27.25a74.43,74.43,0,0,1,13.69-19.82C239,118.16,255.46,110.73,272.68,109c18.71-1.89,37.51,3.19,55.11,9.08,17.4,5.83,34.41,12.87,52.17,17.59a179.11,179.11,0,0,0,54.81,6c33.77-1.68,66.48-13.74,94-33.19,14.42-10.18,27.37-22.25,41.35-33a167,167,0,0,1,47.73-26c34.71-11.94,72.79-14.93,109.23-16.63,39.35-1.82,78.88-.77,118.26-.67l29.06.08a1.25,1.25,0,0,0,0-2.5Z" />
      <path class="f"
        d="M881.65,37.24c-39.58-.41-79.2-1.29-118.78-1.05-37.48.22-75.59,3.08-112.22,11.36-16.92,3.82-33.53,9.23-48.95,17.25C586.05,72.93,572.43,84,559,95.26c-14,11.72-28.13,23.17-44.19,32a178.34,178.34,0,0,1-49.3,18.41,171,171,0,0,1-55.54,2.21c-19.13-2.34-37.38-8.18-55.53-14.42-32.1-11-67.45-23.48-100.32-8.06a77,77,0,0,0-33.45,31.17c-9.14,15.7-10.32,34.15-18.34,50.24-7.44,14.93-20,26.29-31.85,37.66a189.49,189.49,0,0,0-31.23,38C120,313.79,108.11,349,91,381.34s-39.18,61.67-63.71,89q-8.66,9.63-17.61,19c-1.1,1.16.66,2.93,1.77,1.77,24-25.29,47.09-51.76,65.94-81.21,20.1-31.41,33.59-66,49.7-99.47,7.56-15.72,16-31.16,27-44.82,10.26-12.83,23-23.15,34.21-35.12a95,95,0,0,0,22.8-40.64c2.53-9.08,4.78-18.24,8.94-26.75a80,80,0,0,1,15-21.22,74,74,0,0,1,46.48-21.13c18.35-1.47,36.81,3.48,54.12,9.06s34.28,12.25,52,16.56a181.67,181.67,0,0,0,55.26,5c33.63-2.29,66-14.92,93.22-34.59,14.35-10.37,27.31-22.5,41.35-33.27a171.93,171.93,0,0,1,47.3-25.91c16.73-5.95,34.2-9.59,51.72-12.26a570,570,0,0,1,58.74-5.92c39-1.84,78.21-.32,117.23.08l29.22.3a1.25,1.25,0,0,0,0-2.5Z" />
      <path class="g"
        d="M888.88,44.69c-39.55-.71-79.14-1.95-118.7-1.93-37.69,0-75.81,3.57-112.52,12.4-16.68,4-33.06,9.52-48.31,17.45-15.75,8.19-29.5,19.23-43,30.6-13.88,11.66-27.78,23.21-43.58,32.24a180.77,180.77,0,0,1-49.32,19.42,171,171,0,0,1-55.57,3.22c-19.22-2-37.66-7.43-56-13.41-32.41-10.59-68.31-23.06-101.18-7.12-13.71,6.65-24.85,17.65-32.7,30.62-9.45,15.63-11.17,33.84-18.92,50.1-7.36,15.45-20.21,27-32.6,38.39s-23.37,23.39-32.58,37.44c-20,30.53-33.07,65.18-50.62,97.11-17.85,32.5-39.75,62.12-64.12,90q-8.67,9.93-17.63,19.6c-1.09,1.18.67,2.95,1.77,1.76,23.9-25.92,46.8-53,65.92-82.66,20.09-31.2,34.61-65.21,51.6-98.07,8.12-15.71,17.18-31.08,28.69-44.57,10.53-12.34,23.4-22.27,34.57-34a101.28,101.28,0,0,0,14.12-18.1c4.46-7.53,7.15-15.77,9.57-24.13,5-17.53,11.27-33.83,24.31-47.07a73.57,73.57,0,0,1,45.86-21.47c18.5-1.62,37.13,3.12,54.67,8.53,17.8,5.48,35.3,12,53.53,16a183.13,183.13,0,0,0,54.84,3.8c33.49-2.94,65.45-16.07,92.4-36,14.34-10.58,27.36-22.8,41.5-33.62a177.13,177.13,0,0,1,47.57-26.08c16.62-6,33.94-9.88,51.33-12.8A503.44,503.44,0,0,1,743,45.85c38.73-1.84,77.73.13,116.48.81l29.38.53a1.25,1.25,0,0,0,0-2.5Z" />
      <path class="h"
        d="M896.11,52.13c-39.48-1-79-2.59-118.52-2.79A448.71,448.71,0,0,0,664.66,62.75c-16.7,4.26-33.08,10-48.36,18-15.57,8.19-29.23,19.08-42.63,30.37C559.72,122.91,545.82,134.69,530,144a183,183,0,0,1-49.4,20.21,170.87,170.87,0,0,1-54.84,4.06c-19.38-1.65-38-6.74-56.53-12.47-32.71-10.14-69.16-22.6-102-6.08-13.53,6.8-24.4,17.89-32.26,30.73a105.66,105.66,0,0,0-10.24,22.71c-3,9.09-5.13,18.51-9.18,27.2-7.31,15.68-20.31,27.32-33,38.57-12.33,10.9-23.62,22.31-33.17,35.78-20.93,29.54-35.13,63.51-52.94,94.93C77.77,432.55,55.76,463,31.26,491.89c-5.86,6.91-11.84,13.72-17.87,20.48-1.07,1.19.69,3,1.76,1.76,24.25-27.12,47.44-55.34,67.12-86,19.9-31,35.29-64.33,53.21-96.4,8.6-15.39,18.21-30.33,30.17-43.36,10.78-11.73,23.67-21.24,34.75-32.67a97.2,97.2,0,0,0,14.22-18.17c4.47-7.61,7.16-16,9.68-24.38,5.24-17.4,11.93-33.68,24.77-46.94a73.34,73.34,0,0,1,46.45-22c18.62-1.58,37.37,3.14,55.08,8.38s35.17,11.4,53.31,15a184.37,184.37,0,0,0,55,2.84c33.43-3.52,65.07-17.2,91.82-37.34,14.32-10.78,27.4-23.1,41.65-34a183.12,183.12,0,0,1,47.83-26.27C712.61,46.14,791,52,866.57,53.89l29.54.74a1.25,1.25,0,0,0,0-2.5Z" />
      <path class="i"
        d="M903.35,59.58C863.92,58.3,824.46,56.36,785,55.93a417.23,417.23,0,0,0-112.6,14.19C655.7,74.6,639.28,80.44,624,88.54c-15.65,8.27-29.44,19.13-42.9,30.52-14,11.87-27.94,23.86-43.72,33.39a185,185,0,0,1-48.73,20.82,170.47,170.47,0,0,1-54.82,5.06c-19.53-1.32-38.38-6-57.1-11.53-32.64-9.58-69.43-22-102-5.51-13.75,7-24.61,18.32-32.66,31.35a112.75,112.75,0,0,0-10.51,22.54c-3.13,9.09-5.42,18.53-9.43,27.3-7.17,15.64-20,27.25-32.87,38.22-12.61,10.76-24.43,21.75-34.5,35-21.84,28.71-37.18,62.11-55.45,93.08a727.79,727.79,0,0,1-66.11,94q-8.8,10.66-17.9,21.11c-1.05,1.21.71,3,1.77,1.77,24.1-27.78,47.13-56.62,67.16-87.51s36.59-64,55.56-95.58c9.22-15.37,19.5-30.18,32.13-43,11.19-11.34,24.29-20.59,35.39-32a92.73,92.73,0,0,0,13.93-17.93c4.4-7.64,7.08-16.06,9.7-24.43,5.44-17.36,12.57-33.69,25.29-47a72.5,72.5,0,0,1,46.66-22.29c18.36-1.43,36.69,2.81,54.24,7.75,18.14,5.1,36.06,11.11,54.65,14.44a185.25,185.25,0,0,0,54.31,2c33.65-4,65.2-18.25,92-38.77,14.31-11,27.45-23.38,41.8-34.29a189.09,189.09,0,0,1,47.37-26.2c16.44-6.26,33.58-10.61,50.82-14.07a402,402,0,0,1,59.53-7.89c38.58-1.88,77.54,1,116.12,2.25l29.71,1c1.61.05,1.6-2.45,0-2.5Z" />
      <path class="j"
        d="M910.58,67c-39.64-1.58-79.33-3.89-119-4.51a388.57,388.57,0,0,0-112.9,15.34C662,82.64,645.53,88.75,630.21,97s-29.08,19.13-42.39,30.44c-14.1,12-28,24.11-43.84,33.83a187.21,187.21,0,0,1-48.86,21.4A170.62,170.62,0,0,1,441,188.33c-19.66-1.07-38.7-5.53-57.61-10.79-32.7-9.1-69.92-21.27-102.2-4.26-13.75,7.24-24.36,18.91-32.42,32a122.36,122.36,0,0,0-11,23.46c-3.22,9.11-5.67,18.54-9.83,27.29-7.39,15.59-20.55,27.07-33.63,37.84-12.92,10.63-25.12,21.5-35.59,34.64-22.11,27.76-38.45,60-57,90.17A925.31,925.31,0,0,1,35,513.67q-8.84,11-17.93,21.77c-1,1.23.73,3,1.76,1.77C43,508.54,66,478.86,86.55,447.46c20-30.62,37.48-62.8,57.22-93.58,9.52-14.84,20.06-29.11,32.76-41.4,11.65-11.28,25.17-20.45,36.61-32a90.79,90.79,0,0,0,14.18-18c4.46-7.63,7.2-16.06,9.93-24.42,5.7-17.49,13.12-34.16,25.84-47.76a71.79,71.79,0,0,1,46.18-22.73c18.36-1.58,36.66,2.37,54.3,7.07,18.31,4.89,36.41,10.66,55.15,13.73a186.35,186.35,0,0,0,54.48,1.28c33.4-4.41,64.58-18.93,91.11-39.42,14.27-11,27.4-23.45,41.71-34.43a197,197,0,0,1,48.14-27.1c16.48-6.48,33.65-11.1,50.93-14.85,19.37-4.21,39-7.45,58.83-8.46,19.59-1,39.21-.16,58.8.62l58.87,2.35,29,1.16c1.61.06,1.61-2.44,0-2.5Z" />
      <path class="k"
        d="M917.81,74.48C878,72.6,838,69.91,798.15,69.1c-38-.77-75.28,5.17-111.72,16.06a253.53,253.53,0,0,0-48.56,19.61c-16,8.66-30.09,19.86-43.87,31.62-14.16,12.09-28.18,24.34-44,34.19a189.23,189.23,0,0,1-48.32,21.56,171.41,171.41,0,0,1-55.2,6.08c-19.77-1-39-5.36-58-10.4-32.27-8.54-69.42-19.88-100.86-2.6-13.54,7.45-23.82,19.19-31.81,32.23a133.46,133.46,0,0,0-11.23,23.36c-3.38,9.13-6,18.58-10.09,27.41-7.29,15.56-20.22,27-33.41,37.55s-25.91,21-36.9,33.84c-11.22,13.16-20.84,27.58-30.1,42.15-9.95,15.65-19.87,31.31-29.9,46.91-21.15,32.9-43.09,65-67.2,95.87Q28.06,535.85,19,547c-1,1.24.75,3,1.77,1.77a1127.78,1127.78,0,0,0,67.78-91.3c20.25-30.64,38.86-62.42,59.65-92.69,10.17-14.8,21.41-28.95,34.78-41,11.87-10.68,25.3-19.53,36.62-30.83a87.09,87.09,0,0,0,14.79-19.07c4.16-7.48,6.83-15.67,9.56-23.74,5.88-17.35,13.6-34,26-47.73a70.94,70.94,0,0,1,45.72-23.21c18.36-1.78,36.7,1.94,54.41,6.41,17.94,4.53,35.69,9.9,54,12.78a189.58,189.58,0,0,0,54.39,1.11c33.73-4.5,65.13-19.35,91.86-40.09,14.71-11.41,28.21-24.28,43-35.61a204.33,204.33,0,0,1,47.86-27.2,345.73,345.73,0,0,1,51-15.65c19.39-4.52,39.08-8,59-9,19.43-1,38.88,0,58.29.92l59.19,2.78L917.81,77c1.61.07,1.61-2.43,0-2.5Z" />
      <path class="l"
        d="M925.05,81.92c-40.07-2.17-80.21-5.23-120.33-6.23-19.08-.48-38.05.38-56.87,3.65a421.88,421.88,0,0,0-55.16,13.53,263.18,263.18,0,0,0-48.56,20.38c-16,8.88-30.14,20.2-44,32.07-14.22,12.21-28.31,24.55-44.23,34.52a191.09,191.09,0,0,1-48.51,21.93,172.14,172.14,0,0,1-55.49,6.34c-19.89-.9-39.22-5.18-58.46-10-32.28-8.11-69.92-18.74-100.73-.32-13.22,7.91-23,20-30.79,33.1a148.37,148.37,0,0,0-11.22,23.53c-3.44,9.15-6.17,18.6-10.47,27.41-7.75,15.86-21.31,27.32-35.06,37.87-13.09,10-25.75,20.12-36.82,32.44-11.53,12.84-21.53,26.94-31.2,41.21q-15.57,23-31.08,46C84.48,471.57,62.9,503.67,39.4,534.58q-9.18,12.07-18.59,23.94c-1,1.25.76,3,1.76,1.77C46.26,530.41,68.86,499.67,90.08,468c20.42-30.48,40.12-61.61,61.74-91.25,10.58-14.5,22.2-28.33,35.82-40.08,12.14-10.47,25.77-19.13,37.32-30.3a87.3,87.3,0,0,0,15.16-18.93c4.29-7.44,7.1-15.63,9.93-23.7,6.07-17.33,13.73-34.15,25.77-48.23,11.34-13.24,26.6-22.14,44-24.51,18.52-2.52,37.23.86,55.23,5.1s36,9.48,54.4,12.26c18.1,2.73,36.55,3.38,54.72.89,33.68-4.62,65-19.62,91.72-40.34,14.62-11.34,28-24.12,42.61-35.54A212.93,212.93,0,0,1,666.83,105,351.31,351.31,0,0,1,718.44,88.2c19.4-4.89,39.13-8.71,59.15-9.75,19.54-1,39.11.1,58.63,1.16l59.51,3.22,29.32,1.59c1.6.09,1.6-2.41,0-2.5Z" />
      <path class="m"
        d="M932.28,89.37c-40-2.45-80.06-5.82-120.11-7.07C793,81.7,773.88,82.49,755,86a411.9,411.9,0,0,0-56,14.64,273.94,273.94,0,0,0-47.86,20.74c-15.76,8.89-29.82,20.06-43.5,31.83-14.5,12.49-28.81,25.21-45,35.52A193.28,193.28,0,0,1,514,211.18a171.55,171.55,0,0,1-54.81,6.89c-20.18-.68-39.84-4.76-59.42-9.41-32.72-7.78-71.43-18.16-102,1.81-13.22,8.65-22.67,21.59-30.35,35.17-9.1,16.1-13.18,34.19-21.66,50.49-8.17,15.69-22.07,26.89-36.05,37.2-13.68,10.1-26.81,20.32-38.44,32.82-11.77,12.65-22.09,26.55-32.16,40.55-10.7,14.89-21.49,29.72-32,44.75-22.48,32.19-44.2,64.83-67.63,96.36q-8.41,11.33-17,22.5c-1,1.28,1.19,2.52,2.15,1.26,23.67-30.75,46.25-62.35,68-94.47,20.58-30.36,41.37-60.91,64-89.81,11-14.05,23-27.41,36.9-38.68,12.49-10.12,26.27-18.62,37.91-29.8a85.63,85.63,0,0,0,14.9-18.54c4.31-7.46,7.22-15.63,10.15-23.7,6.21-17.13,13.85-33.95,25.43-48.2C293,214.69,308,205.29,325.55,202.58c19-2.92,38.31.42,56.86,4.58,18.09,4.06,36,9,54.4,11.47s37,2.88,55.29.05c33.89-5.24,65.08-21,91.77-42.18,14.37-11.39,27.67-24.06,42.11-35.36a221.62,221.62,0,0,1,48-28.38A368,368,0,0,1,726.4,95c19.15-5.1,38.64-9,58.47-10.06,19.37-1,38.77.27,58.1,1.46l59.84,3.67,29.47,1.8c1.61.1,1.6-2.4,0-2.5Z" />
      <path class="n"
        d="M939.51,96.82C899.3,94.07,859,90.34,818.74,88.89c-19.3-.69-38.51.11-57.49,3.82a403.1,403.1,0,0,0-56,15.58,282.28,282.28,0,0,0-47.86,21.51c-15.76,9.11-29.85,20.4-43.58,32.29-14.56,12.6-28.94,25.41-45.19,35.86a195.54,195.54,0,0,1-48.81,22.85,172.33,172.33,0,0,1-55.1,7.16c-20.3-.61-40.11-4.6-59.85-9-32.76-7.37-72-17-101.84,4.12-12.87,9.13-21.83,22.4-29.33,36-8.92,16.23-13.29,34.4-22,50.64-8.45,15.64-22.6,26.69-36.82,36.8-13.91,9.89-27.29,19.87-39.27,32.11s-22.79,25.9-33.27,39.6c-11.13,14.56-22.37,29.06-33.15,43.88C85.88,494,64.26,527,41.13,559q-8.33,11.49-16.81,22.86c-1,1.29,1.21,2.54,2.16,1.26C71.84,522.4,111.9,457.72,160.34,399.32c11.52-13.89,24-27.07,38.35-38.11,12.65-9.75,26.44-18,38.17-28.95a86.12,86.12,0,0,0,15.26-18.41c4.45-7.42,7.49-15.59,10.51-23.66,6.29-16.83,13.71-33.27,24.46-47.79s25.36-24.79,43.23-28.09c18.95-3.51,38.4-.56,57.05,3.32,18.24,3.81,36.29,8.55,54.8,11s37.21,2.75,55.62-.18c34.07-5.41,65.35-21.48,92.14-42.82,14.43-11.49,27.78-24.27,42.27-35.69a232,232,0,0,1,48-29,378,378,0,0,1,52.41-18.67c19.16-5.45,38.7-9.69,58.64-10.74,19.49-1,39,.38,58.44,1.71l60.16,4.11,29.63,2c1.61.11,1.6-2.39,0-2.5Z" />
      <path class="o"
        d="M946.75,104.27c-40.13-3-80.34-7-120.55-8.75-19.71-.84-39.32,0-58.68,4a391.48,391.48,0,0,0-55.6,16.36,293.33,293.33,0,0,0-48.72,22.67c-15.86,9.4-30.05,21-43.91,33.06-14.33,12.48-28.53,25.12-44.51,35.49a197.88,197.88,0,0,1-48.2,23.05,171.67,171.67,0,0,1-54.67,7.77c-20.42-.35-40.41-4.1-60.32-8.33-32.89-7-72.74-16.46-102.33,5.25-12.6,9.24-21.14,22.58-28.52,36.12a220.82,220.82,0,0,0-11.29,24.27c-3.65,9.22-6.85,18.7-11.63,27.42-8.62,15.73-22.88,26.74-37.39,36.72-14,9.61-27.62,19.2-39.89,31-13.18,12.68-24.9,26.75-36.41,40.94C133,445,121.72,458.68,111,472.79c-23.89,31.59-45.43,65-68.26,97.37q-8.23,11.67-16.6,23.23c-.95,1.3,1.22,2.55,2.16,1.26,22.87-31.53,44.71-63.79,67-95.74a992.67,992.67,0,0,1,69.14-88c12.08-13.72,25.16-26.71,40-37.48,12.64-9.19,26.22-17.16,37.84-27.69a86.13,86.13,0,0,0,16.08-19c4.49-7.42,7.61-15.6,10.72-23.67,6.62-17.22,14.29-34.26,25.17-49.27,10.63-14.67,25.2-24.87,43.19-28.19,18.78-3.48,38-.77,56.55,2.87s36.62,8.16,55.26,10.37c18.23,2.17,36.74,2.32,54.87-.72,33.71-5.65,64.65-21.69,91.21-42.84,14.73-11.73,28.35-24.79,43.08-36.54a240.67,240.67,0,0,1,48.06-29.65,386.51,386.51,0,0,1,52.4-19.59c19.17-5.8,38.76-10.36,58.81-11.44s39.84.54,59.69,2L917,104.53l29.79,2.24c1.6.12,1.59-2.38,0-2.5Z" />
      <path class="p"
        d="M954,111.71c-40.34-3.3-80.77-7.7-121.2-9.6-19.84-.93-39.55-.13-59,4.14-19,4.15-37.52,10.32-55.61,17.29A305.44,305.44,0,0,0,669.45,147c-15.86,9.61-30.08,21.31-44,33.5-14.38,12.6-28.65,25.34-44.68,35.83a200.09,200.09,0,0,1-48.39,23.4,172.11,172.11,0,0,1-55,8c-20.54-.28-40.66-3.94-60.74-8-32.66-6.55-72.55-15.22-101.43,6.9-12.69,9.72-20.94,23.73-28.29,37.65-8.86,16.78-13.94,35.4-23.29,51.87-8.9,15.68-23.41,26.55-38.17,36.33-14.2,9.41-28.09,18.77-40.7,30.31-13.51,12.35-25.65,26.08-37.58,39.94s-23.9,27.45-35.1,41.8c-24.2,31-45.43,64.37-67.69,96.75Q36.28,593.17,28,604.93c-.93,1.32,1.24,2.57,2.16,1.26,22.56-32,44.12-64.74,66.73-96.73,21.52-30.45,45.85-59.27,71.28-86.53,12.5-13.42,25.94-26.08,41-36.58,12.89-9,26.66-16.78,38.5-27.19a86.64,86.64,0,0,0,16.45-18.88c4.62-7.4,7.88-15.57,11.08-23.65,6.82-17.24,14.41-34.37,24.85-49.78,10.18-15,24.15-25.78,42.11-29.64,18.74-4,38.11-1.71,56.75,1.67s36.92,7.77,55.68,9.89c18.34,2.08,37,2.19,55.19-.94,33.88-5.82,64.91-22.14,91.57-43.47,14.79-11.84,28.48-25,43.24-36.88a250.85,250.85,0,0,1,48.1-30.27,397.62,397.62,0,0,1,52.39-20.52c19.18-6.13,38.79-11,59-12.13s40.08.65,60,2.29l59.9,4.91,30,2.45c1.6.14,1.59-2.36,0-2.5Z" />
      <path class="q"
        d="M961.21,119.16c-40.84-3.62-81.8-8.48-122.76-10.5-19.65-1-39.17-.11-58.39,4.35-19,4.4-37.55,10.95-55.63,18.24a318.11,318.11,0,0,0-48.73,24.21c-16.1,10-30.54,22-44.73,34.53-14.42,12.7-28.78,25.47-44.9,36a200.57,200.57,0,0,1-48.63,23.56,173.62,173.62,0,0,1-55.39,8c-20.35-.29-40.33-3.83-60.28-7.59-33-6.23-73.67-14.16-101.9,9.58-12.25,10.3-19.93,24.83-27.07,38.88-8.73,17.16-14.05,36.29-24.12,52.72-9.28,15.13-24,25.56-38.73,34.93s-29,18.75-42.12,30.28c-13.56,11.92-25.9,25.13-38.06,38.44-12.53,13.71-25.2,27.27-36.83,41.76-24.44,30.44-45.37,63.81-67.08,96.21q-7.94,11.83-16,23.63c-.91,1.33,1.25,2.58,2.16,1.26C54,585.64,75,552.92,97.6,521.28c21.74-30.45,47-58.46,73.19-85.16,12.93-13.18,26.69-25.65,42-36,13.28-9,27.48-16.67,39.79-27,13.7-11.51,21.82-25.67,28.51-42,7.07-17.31,14.53-34.56,24.47-50.47,9.43-15.09,22.33-26.66,39.84-31.31,18.86-5,38.68-3.19,57.68-.07,18.7,3.08,37.19,7.35,56.05,9.45s37.77,2.2,56.39-1.06c33.75-5.91,64.7-22.32,91.27-43.57,14.89-11.91,28.65-25.16,43.41-37.22A263.55,263.55,0,0,1,699,145.36a411.59,411.59,0,0,1,52.37-21.43c19.19-6.5,38.84-11.67,59.14-12.83s40.32.76,60.38,2.54L931.1,119l30.11,2.67c1.6.14,1.59-2.36,0-2.5Z" />
      <path class="r"
        d="M968.44,126.61c-40.76-3.89-81.62-9-122.51-11.31-20.07-1.12-40-.3-59.59,4.47-19.06,4.64-37.6,11.59-55.65,19.19a332.15,332.15,0,0,0-48.73,25c-15.86,10-30.16,22-44.18,34.41-14.49,12.82-28.9,25.75-45,36.49A204.32,204.32,0,0,1,544,259a173,173,0,0,1-55.53,8.56c-20.78-.13-41.19-3.62-61.59-7.24-32.94-5.84-73.94-13-101.44,11.49-12.3,11-19.62,26.37-26.77,40.91-8.39,17.08-13.91,36-24.14,52.13-9.73,15.29-24.95,25.64-40.13,34.93-14.86,9.1-29.36,18.28-42.74,29.51-14.33,12-27.45,25.39-40.46,38.81-12.83,13.23-25.76,26.35-37.48,40.59-24.62,29.93-45.23,63.29-66.4,95.69Q39.56,616.19,31.74,628c-.89,1.34,1.27,2.59,2.16,1.26,21.35-32.15,41.83-64.88,64.39-96.21,22.06-30.65,48.36-58,75.46-84.22,13.56-13.12,27.93-25.52,43.79-35.8,13.32-8.64,27.48-16,39.89-26,14-11.26,22.57-25.16,29.48-41.54,7.36-17.49,14.77-35,24.32-51.44,9.35-16.12,22.14-28.45,40.49-33.5,18.65-5.13,38.3-3.61,57.18-.74,37.47,5.69,74.29,14.39,112.31,7.55,34.24-6.16,65.45-23,92.3-44.74,14.92-12.05,28.74-25.39,43.56-37.55a273.51,273.51,0,0,1,48.19-31.52,422.91,422.91,0,0,1,52.36-22.36c19.19-6.84,38.87-12.32,59.3-13.51s40.56.87,60.73,2.79l60.53,5.78,30.26,2.89c1.61.15,1.6-2.35,0-2.5Z" />
      <path class="s"
        d="M975.68,134.06l-62.7-6.4c-20.43-2.09-40.88-4.63-61.38-5.82-19.88-1.16-39.64-.26-59,4.69-18.69,4.78-36.78,11.92-54.44,19.6a347.29,347.29,0,0,0-50,26.29c-16.1,10.4-30.62,22.72-44.91,35.43-28.4,25.27-57.65,48.89-94.27,61a174.22,174.22,0,0,1-56,8.58c-20.59-.14-40.85-3.51-61.12-6.87-33.22-5.52-75.27-12-101.89,14.23-11.78,11.61-18.54,27.41-25.54,42.12-8.31,17.45-14.12,36.87-25.1,52.89-10.11,14.74-25.49,24.65-40.63,33.55-15.37,9-30.32,18.24-44.24,29.45-14.4,11.59-27.7,24.43-41,37.3-13.5,13.12-27.07,26.16-39.19,40.6-24.74,29.47-45,62.78-65.65,95.17Q41.2,627.7,33.6,639.54c-.88,1.36,1.29,2.62,2.16,1.27,20.76-32.2,40.73-64.95,63.22-96,22.26-30.74,49.36-57.23,77.23-82.86,14-12.88,28.72-25.06,44.84-35.22,13.89-8.74,28.68-16.06,41.66-26.2,14.42-11.26,23.38-25.31,30.56-42,7.38-17.12,14.66-34.3,23.47-50.76,8.64-16.15,20.32-29.3,38.19-35.15,18.51-6.07,38.34-5.17,57.38-2.65,19.23,2.55,38.23,6.63,57.55,8.57,19,1.92,38.23,1.94,57-1.51,34.11-6.24,65.24-23.21,92-44.83,15-12.13,28.89-25.55,43.72-37.89a288.44,288.44,0,0,1,48.89-32.69,440.71,440.71,0,0,1,52.34-23.28c19.19-7.19,38.92-13,59.47-14.2,20.4-1.23,40.8,1,61.07,3l60.85,6.21,30.43,3.11c1.6.16,1.59-2.34,0-2.5Z" />
      <path class="t"
        d="M982.91,141.5l-63-6.84c-20.54-2.23-41.1-4.94-61.72-6.23-20-1.25-39.87-.34-59.29,4.87-18.47,4.95-36.29,12.32-53.69,20.17a365.3,365.3,0,0,0-50,27c-15.88,10.39-30.3,22.57-44.43,35.19-28.75,25.68-58.15,50-95.19,62.57a173.81,173.81,0,0,1-56.09,9.09c-21,0-41.72-3.3-62.44-6.51-33.08-5.12-75.52-10.88-101.34,16-11.66,12.15-18,28.53-24.94,43.57-8.05,17.36-14.13,36.52-25.07,52.35-10.4,15-26.23,25-41.86,33.83-16,9.06-31.58,18.26-46.18,29.53-14.33,11-27.71,23.23-41.05,35.44-13.95,12.78-27.95,25.49-40.35,39.81C91,560.52,70.74,594.27,50.41,627q-7.47,12-15,24.05c-.85,1.37,1.31,2.63,2.16,1.27C58.21,619.45,78.06,586,101,554.67c22.41-30.54,50.31-56,78.8-80.75,14.61-12.7,29.93-24.68,46.56-34.64,14.35-8.58,29.53-15.83,42.8-26.13,14.11-11,23.06-24.75,30.22-40.95,7.58-17.15,14.83-34.46,23.21-51.25s19.61-30.52,37.84-36.85,38-5.82,57-3.59c19.62,2.31,39,6.33,58.69,8.14,19.07,1.76,38.39,1.67,57.25-2C568,280,599.28,262.42,626.3,240.27c14.79-12.11,28.54-25.43,43.21-37.67a300.66,300.66,0,0,1,49-33.18,456.87,456.87,0,0,1,52.69-24.23c18.84-7.35,38.23-13.19,58.52-14.46s40.43,1,60.49,3.21l62.1,6.74L982.91,144c1.6.18,1.59-2.32,0-2.5Z" />
      <path class="u"
        d="M990.14,149l-63.35-7.29c-20.7-2.38-41.42-5.28-62.22-6.65-20.07-1.33-40-.38-59.42,5.05-18.25,5.09-35.8,12.72-52.94,20.72a384.41,384.41,0,0,0-50.76,28.11c-15.89,10.6-30.34,22.92-44.53,35.66-29,26-58.82,50.77-96.3,63.52a175.9,175.9,0,0,1-57.43,9.09c-21.14-.07-42-3.43-62.84-6.4-33-4.69-75.51-9-100,19-10.95,12.56-16.63,29-23.39,44-7.78,17.27-14.08,36.26-25,51.86C281.19,421,265,430.9,248.87,439.7s-32.11,17.79-47.07,28.74-28.86,23-42.83,35c-14.42,12.44-28.83,24.88-41.48,39.16C92,571.34,72.12,605.08,52.32,637.79q-7.5,12.42-15,24.83a1.25,1.25,0,0,0,2.16,1.26c20-32.93,39.37-66.41,62.26-97.48s52-56.1,81.75-80.52c15-12.35,30.74-24,47.65-33.67,14.6-8.36,30-15.42,43.5-25.61,14.24-10.76,23.5-24.39,30.82-40.51,7.84-17.26,15.1-34.79,23.07-52,7.56-16.33,17.5-30.29,34.62-37.47,18.09-7.59,38.28-7.68,57.5-5.81,19.76,1.92,39.27,5.82,59.05,7.65,19.51,1.81,39.29,1.82,58.6-1.87,34.76-6.65,66.26-24.42,93.4-46.66,15.1-12.37,29.11-26,44-38.56a316.22,316.22,0,0,1,49.06-33.81,474.19,474.19,0,0,1,52.67-25.16c19-7.74,38.59-13.91,59.19-15.16C856.82,136,877,138.43,897,140.73l62.42,7.18,30.74,3.54c1.6.19,1.59-2.32,0-2.5Z" />
      <path class="v"
        d="M997.38,156.4l-63.68-7.74c-20.81-2.53-41.64-5.6-62.56-7.07-20.18-1.41-40.22-.46-59.72,5.23-18.57,5.42-36.36,13.53-53.72,22A399.55,399.55,0,0,0,707,197.86c-16.1,11-30.75,23.74-45.2,36.79-29.06,26.24-59.21,50.92-96.88,63.55a176.87,176.87,0,0,1-58,8.84c-20.77-.16-41.25-3.37-61.79-6.06C411.74,296.6,368.4,293.3,345,323c-10.68,13.54-15.95,31-22.81,46.61-7.75,17.59-14.35,37-26.39,52.22-11.44,14.46-27.81,23.75-43.91,32.12-16.59,8.63-32.72,17.59-48,28.38-15.12,10.65-29.41,22.38-43.77,34S131.21,540.05,118.66,554C92.94,582.43,73.2,616.39,53.79,649.3c-4.89,8.28-9.74,16.58-14.63,24.86a1.25,1.25,0,0,0,2.16,1.26c19.47-33,38.33-66.46,61.11-97.31a274.1,274.1,0,0,1,40.22-44c13.76-12,28.11-23.44,42.49-34.68,15.42-12.06,31.43-23.44,48.52-33,14.84-8.33,30.58-15.11,44.53-25,14.56-10.28,24.68-23.39,32.33-39.4,8.05-16.85,15.26-34.18,22.47-51.41,7-16.78,15.36-32.3,32.21-40.93,17.93-9.17,38.94-10,58.63-8.5,20.2,1.53,40.14,5.37,60.31,7.2,19.4,1.76,39.06,1.83,58.28-1.72,35.23-6.52,67.18-24.53,94.66-47,15.19-12.44,29.27-26.14,44.2-38.88a331.08,331.08,0,0,1,49-34.58,495.17,495.17,0,0,1,52.07-26c19.1-8.23,38.89-14.94,59.78-16.35,20.59-1.38,41.17,1.21,61.57,3.69l62.74,7.62,30.91,3.76c1.59.19,1.58-2.31,0-2.5Z" />
      <path class="w"
        d="M1004.61,163.85l-64-8.19c-20.92-2.67-41.86-5.92-62.9-7.48-19.89-1.47-39.72-.61-58.93,5.08-18.49,5.48-36.1,13.83-53.3,22.45a426.39,426.39,0,0,0-50.8,29.62c-16.15,11.13-30.91,23.91-45.43,37.06-29.2,26.47-59.29,51.7-97,64.92a176.64,176.64,0,0,1-58,9.63c-20.89.07-41.53-2.95-62.22-5.48-33.54-4.11-77.72-7.3-101,22.92-10.54,13.71-15.19,31.39-21.9,47.09-7.61,17.77-14.54,37.18-26.49,52.59-11.65,15-28.62,24.47-45.33,32.84-17.17,8.6-33.93,17.45-49.91,28.17s-31.32,22.63-46.66,34.37c-14.65,11.21-29,22.8-41.5,36.47-25.67,28.16-45.09,62-64,94.9Q48.12,673.25,41,685.7A1.25,1.25,0,0,0,43.18,687c18.92-33,37.3-66.51,60-97.16a251.82,251.82,0,0,1,40.62-43.74c14.55-12.2,29.88-23.62,45.16-34.88,15.79-11.65,32.11-22.64,49.42-31.92,15.44-8.27,31.76-15,46.17-25.07,14.88-10.39,25.06-23.84,32.88-40.09,8.13-16.92,15.35-34.34,22.18-51.81,6.71-17.16,14.78-32.72,31.82-41.53,18.09-9.35,39.22-10.33,59.14-9,20.35,1.39,40.47,5.08,60.8,6.7,19.46,1.56,39.15,1.42,58.36-2.4,35.4-7,67.3-25.62,94.81-48.49,15.18-12.62,29.33-26.42,44.34-39.24a347.1,347.1,0,0,1,49.23-35,514.83,514.83,0,0,1,52.19-26.71c18.6-8.26,37.88-14.91,58.32-16.32,20.72-1.43,41.41,1.31,61.92,3.93l63.06,8.07,31.06,4c1.59.2,1.58-2.3,0-2.5Z" />
      <path class="x"
        d="M1011.84,171.3l-64.33-8.64c-21-2.82-42.07-6.23-63.23-7.89-20-1.56-39.95-.69-59.23,5.24-18.55,5.7-36.13,14.42-53.32,23.34a447.37,447.37,0,0,0-50.79,30.44c-16.15,11.34-31,24.26-45.52,37.53C646.13,278,615.89,303.48,578,316.93a176.92,176.92,0,0,1-58.31,9.89c-21,.15-41.79-2.79-62.63-5.12-33.61-3.76-78-6.11-100.56,24.71-10.14,13.86-14.13,31.55-20.6,47.21-7.64,18.51-15.1,38.85-27.87,54.54-11.93,14.67-29,23.84-45.71,31.91-17.42,8.39-34.49,17-50.84,27.35s-32.13,21.93-47.9,33.31c-15.06,10.87-29.83,22.18-42.56,35.78-26.17,28-45.5,62.28-64.11,95.49-4.71,8.4-9.36,16.83-14.05,25.24-.78,1.41,1.38,2.67,2.16,1.26,18.62-33.42,36.75-67.39,59.64-98.15A233,233,0,0,1,146.1,557C161,545,176.82,534,192.5,523.1c16.22-11.29,32.92-21.94,50.52-31,15.71-8,32.24-14.56,46.9-24.51,15.08-10.25,25.59-23.66,33.6-39.92a514.61,514.61,0,0,0,22-52.26c6.32-17.48,13.65-33.51,30.66-42.91,17.95-9.92,39.22-11.36,59.3-10.27,40.19,2.19,79.69,11.71,119.9,3.56,35.58-7.21,67.57-26.08,95.18-49.13C665.8,264,680,250.09,695.05,237.14a365,365,0,0,1,49.27-35.6,532.58,532.58,0,0,1,52.17-27.63c18.6-8.6,37.9-15.54,58.49-17,20.84-1.47,41.65,1.42,62.26,4.18l63.38,8.51,31.22,4.19c1.59.21,1.58-2.29,0-2.5Z" />
      <path class="y"
        d="M1019.41,178.79l-64.66-9.08c-20.64-2.9-41.29-6.35-62-8.19-20.13-1.78-40.29-1.21-59.73,4.73-19,5.79-36.8,15-54.22,24.34a472.53,472.53,0,0,0-50.83,31.14c-16.17,11.51-31,24.52-45.67,37.9-29.4,26.9-59.7,52.8-97.68,66.65a177.17,177.17,0,0,1-58.44,10.42c-21.29.29-42.36-2.54-63.5-4.71C428.9,328.54,384,326.83,362,358.28c-10,14.33-13.41,32.55-19.81,48.57-7.59,19-15.54,39.86-29,55.59-12.33,14.43-29.67,23.31-46.62,31.13-17.71,8.17-35.08,16.57-51.8,26.66s-32.87,21.24-49,32.26c-15.74,10.72-31.12,22-44.21,35.94-26,27.74-45,61.9-63.17,95.08-4.59,8.41-9.12,16.84-13.67,25.27-.77,1.41,1.39,2.68,2.16,1.26C65,676.6,82.64,642.61,105.38,612a217.32,217.32,0,0,1,42.81-44C163.13,556.68,179,546.33,194.64,536a483.51,483.51,0,0,1,51.42-30.13c16-7.93,32.84-14.23,47.93-23.91,15.38-9.86,26.55-22.89,34.89-39.09a380.72,380.72,0,0,0,22.57-54.23c5.93-17.8,12.55-34.31,29.5-44.29,17.56-10.34,38.62-12.33,58.58-11.6,40.21,1.47,79.75,11.06,119.94,3.17,35.78-7,68-25.88,95.78-49,15.37-12.75,29.65-26.74,44.68-39.89a386.31,386.31,0,0,1,49.16-36.47,556.22,556.22,0,0,1,52-28.69c18.5-9,37.79-16.55,58.45-18.31,21.44-1.83,42.9,1.27,64.1,4.25l63.71,8.94,31.37,4.41c1.58.22,2.26-2.19.67-2.41Z" />
      <path class="z"
        d="M1026.64,186.24l-65-9.53c-20.73-3-41.49-6.66-62.37-8.59-20.24-1.88-40.52-1.31-60,4.85-19,6-36.85,15.6-54.24,25.24a495.6,495.6,0,0,0-50.83,32C718,241.9,703.1,255.05,688.42,268.55c-29.49,27.11-59.94,53.27-98.06,67.34a177.06,177.06,0,0,1-58.72,10.69c-21.41.36-42.63-2.39-63.91-4.35-34-3.14-79.56-4-100.64,28.6-9.88,15.27-12.71,34.45-19.31,51.18-7.54,19.12-15.84,40.08-30,55.38-12.93,14-30.45,22.44-47.61,30-18,7.94-35.72,16.24-52.82,26.09S183.77,554,167.23,564.65c-16.18,10.43-31.92,21.62-45.15,35.71C96.21,627.91,77.53,661.88,59.9,695c-4.48,8.41-8.89,16.86-13.32,25.3-.74,1.42,1.41,2.68,2.16,1.26,17.57-33.46,34.79-67.46,57.35-97.91C118.43,607,132.43,592.26,149.16,580c15.23-11.21,31.52-21.13,47.55-31.15a533,533,0,0,1,52.34-29.29c16.3-7.79,33.45-13.9,49-23.3A98.06,98.06,0,0,0,334.19,458,302.9,302.9,0,0,0,357,403.19c5.71-18.56,11.38-36.19,28.76-47.06s38.61-13.35,58.73-12.89c40.45.92,80.31,10.5,120.69,2.43,36-7.19,68.25-26.33,96.15-49.59,15.43-12.86,29.78-26.94,44.84-40.22a406.25,406.25,0,0,1,49.2-37.1,577.47,577.47,0,0,1,52-29.61c18.48-9.32,37.8-17.19,58.6-19,21.57-1.88,43.15,1.37,64.45,4.49l64,9.38,31.54,4.63c1.57.23,2.25-2.18.66-2.41Z" />
      <path class="aa"
        d="M1033.87,193.68l-65.31-10c-21.15-3.22-42.32-7.08-63.63-9.08-20.35-1.91-40.71-1.16-60.23,5.34-18.8,6.27-36.3,16.06-53.44,25.87a520.36,520.36,0,0,0-51.55,33.33c-16.14,12-31.05,25.3-45.79,38.92-29.55,27.29-60.25,53.58-98.53,67.71a178.43,178.43,0,0,1-59.17,10.68c-21.23.34-42.28-2.27-63.4-4-34.4-2.83-81.15-2.75-101,31.49-9.25,15.94-11.5,35.32-18.13,52.39-7.49,19.27-16.13,40.24-30.79,55.27-13.67,14-31.87,22.26-49.66,29.7a560.2,560.2,0,0,0-53.41,25.31c-17.29,9.47-34.14,19.74-51,30-16.18,9.86-31.83,20.61-45,34.32-26.34,27.37-44.92,61.82-62.27,95.27-4.42,8.52-8.76,17.08-13.12,25.63-.73,1.44,1.43,2.7,2.16,1.27C68,699,85.09,664.31,108.12,633.56c12.17-16.24,26.09-30.54,42.7-42.27,15.32-10.82,31.76-20.18,47.89-29.72A588.67,588.67,0,0,1,252,533.14c16.86-7.76,34.58-13.75,50.69-23.09a98.16,98.16,0,0,0,37.19-37.67,257.42,257.42,0,0,0,22.85-55.16c5.35-18.84,10-37.13,27.13-48.84,16.81-11.48,37.84-14.67,57.79-14.64,41,0,81.49,10,122.4,1.85,36.46-7.25,69.1-26.77,97.32-50.39,15.27-12.77,29.48-26.72,44.34-40a432,432,0,0,1,49.92-38.32C778.14,216,795.29,206,812.8,196.81c18.69-9.84,38.3-18.22,59.55-20.12,21.71-1.93,43.41,1.48,64.81,4.74l64.35,9.83,31.7,4.83c1.57.24,2.25-2.16.66-2.41Z" />
      <path class="ab"
        d="M1041.11,201.13l-65.64-10.41c-21.26-3.38-42.54-7.4-64-9.5-20.46-2-40.94-1.25-60.52,5.49-19.14,6.59-36.87,16.93-54.22,27.21A547.21,547.21,0,0,0,746,247.63c-16.36,12.33-31.49,26-46.5,40-30,27.86-61.46,54.66-100.6,68.68-19.33,6.92-39.47,10-60,10.13-21.16.19-42.16-2.41-63.23-3.85-34.38-2.36-80.83-.49-99.1,34.58-4,7.63-6.12,16-8.18,24.3a246.9,246.9,0,0,1-8.8,29.27c-7.45,19.42-16.47,40.4-31.62,55.15-14.31,13.92-33,21.9-51.29,29.19S240.5,550.24,223,559.32c-17.87,9.29-35.39,19.28-52.82,29.35-16.6,9.59-32.59,20.29-45.92,34.2-26.11,27.25-44.34,61.46-61.22,94.87-4.31,8.53-8.53,17.09-12.77,25.65-.71,1.44,1.45,2.71,2.16,1.27C69.34,710.55,86,675.83,108.84,645.2c12.13-16.27,26.08-30.59,42.87-42.09,15.83-10.85,33-19.93,49.71-29.27,17.73-9.89,35.73-19.34,54.32-27.51,16.91-7.44,34.63-13.17,50.86-22.07a99,99,0,0,0,38.93-37.51,224.78,224.78,0,0,0,23-55.46c5-19.1,8.63-38.08,25.48-50.61,16.47-12.26,37.69-16.05,57.77-16.41,40.7-.71,81,9.15,121.55,1.56C610,359,642.93,339.59,671.39,316c16-13.26,30.82-27.87,46.27-41.76a459,459,0,0,1,50.22-39.19c16.52-11.14,33.66-21.46,51.16-31,18.68-10.18,38.3-18.87,59.71-20.83,21.83-2,43.66,1.57,65.16,5l64.68,10.27,31.85,5c1.58.25,2.25-2.16.67-2.41Z" />
      <path class="ac"
        d="M1048.34,208.58l-66.94-11c-21-3.47-42.1-7.58-63.32-9.75-20.9-2.13-41.75-1.26-61.65,5.94-18.9,6.83-36.33,17.38-53.42,27.81a577.13,577.13,0,0,0-50.79,34.53c-16.61,12.73-32,26.81-47.28,41.06-30.1,28.05-61.78,55-101.08,69-19.47,7-39.78,9.94-60.42,10.12-21.27.19-42.4-2.36-63.6-3.56-34.65-1.95-81.66,1.26-98.46,37.6-3.67,7.93-5.5,16.49-7.36,25A211.5,211.5,0,0,1,365.17,466c-7.53,19.59-17,40.37-32.84,54.71C317.7,534,299.06,541.5,280.85,548.43,262.26,555.5,244,563.21,226.19,572c-18.22,9-36.16,18.54-54,28.27-17.28,9.45-33.85,20.2-47.51,34.55C98.86,662,81,695.91,64.57,729.26c-4.2,8.53-8.3,17.1-12.42,25.67-.69,1.45,1.46,2.72,2.16,1.26,16.39-34.11,32.62-68.84,55.26-99.36,12.09-16.3,26-30.64,43-41.93,16.1-10.74,33.65-19.41,50.75-28.41,18.85-9.92,37.94-19.43,57.62-27.6,16.76-7,34.19-12.41,50.3-20.85,16.4-8.59,29.77-20.36,39.5-36.18a200.8,200.8,0,0,0,23.58-56.47c4.64-18.91,7-38.12,22.8-51.49s37.51-18.21,57.83-19c41.22-1.66,82.1,8.47,123.22.88,36.88-6.81,70-26.34,98.58-50,16.34-13.54,31.44-28.46,47.16-42.7a483.11,483.11,0,0,1,49.52-39.31c16.5-11.43,33.61-22.07,51.08-32,18.91-10.71,38.79-19.93,60.67-22,21.62-2,43.27,1.56,64.54,5.07l65,10.7,33,5.43c1.57.26,2.25-2.15.66-2.41Z" />
      <path class="ad"
        d="M1055.57,216,988.3,204.55c-21.45-3.66-42.93-8-64.59-10.24-20.71-2.11-41.35-1.14-61,6.19-19,7.06-36.37,18-53.42,28.72-17.29,10.9-34.18,22.43-50.32,35-16.79,13-32.35,27.4-47.86,41.91-30.18,28.24-62,55.48-101.45,69.74C589.77,383,569.06,386,548,386.22c-21.39.18-42.64-2.29-64-3.24-35.09-1.56-82.29,3.12-97.77,40.63-3.38,8.2-4.88,17-6.55,25.65a182.58,182.58,0,0,1-8.24,30.14c-7.35,19.5-17,40-32.72,54.2-15,13.58-34.19,21.1-53,27.92s-37.4,14.27-55.61,22.72-36.48,17.59-54.49,26.83c-17.63,9-34.62,19.42-48.6,33.64-26.63,27.09-44.56,61.83-60.83,95.76-4.14,8.63-8.19,17.32-12.24,26-.67,1.45,1.48,2.72,2.16,1.26,16.2-34.74,32.3-70.19,55.43-101,12.27-16.35,26.57-30.5,43.91-41.46,16.29-10.29,34-18.45,51.22-27,19.29-9.54,38.78-18.68,58.8-26.58,17.27-6.81,35.21-12.12,51.76-20.64s30.08-20.42,40-36.32a184.7,184.7,0,0,0,22.68-54.32c4.55-19.47,5.75-39.64,21.37-54.06s37.82-19.79,58.54-20.93c41.17-2.26,82.11,7.77,123.16.25,37.4-6.84,70.87-26.76,99.79-50.8,16.16-13.43,31.13-28.22,46.63-42.4a511.39,511.39,0,0,1,49.53-40c16.74-11.88,34.07-23,51.8-33.4,18.91-11.05,38.75-20.57,60.82-22.73,21.73-2.13,43.53,1.67,64.89,5.31l65.32,11.14,33.15,5.66c1.57.26,2.25-2.14.66-2.41Z" />
      <path class="ae"
        d="M1062.81,223.47,995.2,211.55c-21.55-3.81-43.14-8.35-64.92-10.66-20.81-2.2-41.61-1.22-61.3,6.36-19.41,7.46-37.09,19-54.44,30.26C797,249,779.76,261,763.34,274.11c-16.84,13.41-32.46,28.14-48.15,42.86-30.43,28.54-62.92,55.78-102.92,69.63-19.92,6.89-40.68,9.51-61.7,9.54-21.57,0-43-2.42-64.57-3-34.82-.91-80.71,5.8-94.71,43.29-3.42,9.15-4.55,18.95-6.2,28.52a160,160,0,0,1-8,29.65C369.67,514,359.68,534,343.72,547.78c-15.19,13.12-34.32,20.33-53,26.83-19.42,6.74-38.57,14-57.41,22.25S195.51,613.94,176.89,623c-17.77,8.65-34.79,18.83-48.78,33-26.74,27-44.42,61.95-60.35,96-4,8.64-8,17.33-11.9,26-.66,1.45,1.5,2.73,2.16,1.26,15.72-34.74,31.41-70.18,54.3-100.93,12.38-16.63,26.93-31,44.68-41.8,16.6-10.15,34.71-17.9,52.32-26.09,19.69-9.16,39.57-18,59.91-25.6,17.3-6.49,35.23-11.55,51.89-19.66,16.86-8.2,31-19.63,41.27-35.4a170.89,170.89,0,0,0,23.18-54.28c4.48-19.65,4.4-40.66,19.33-56s36.72-21.56,57.34-23.3c41.31-3.48,82.55,6.71,123.81-.26,37.36-6.31,71-25.84,100-49.57,16.57-13.57,31.84-28.61,47.54-43.16a556.36,556.36,0,0,1,50.85-42c17-12.38,34.58-24,52.59-34.89,18.56-11.19,38.18-21,60-23.35,22.18-2.37,44.41,1.6,66.19,5.45L1028.83,220l33.31,5.87c1.58.28,2.25-2.13.67-2.41Z" />
      <path class="af"
        d="M1070,230.92l-68.92-12.56c-21.34-3.89-42.7-8.52-64.27-10.88-21.27-2.32-42.42-1.22-62.43,6.85-19.43,7.84-37.07,19.75-54.4,31.36-17.57,11.77-34.74,24.16-51.17,37.5-17.05,13.85-32.9,29-48.9,44-30.47,28.64-63.31,55.95-103.51,69.58-20.47,6.94-41.76,9.32-63.31,9.24s-43.16-2.47-64.79-2.62c-35-.23-80.48,8.69-92.38,47.13-2.86,9.23-3.64,18.94-5.1,28.45a146.3,146.3,0,0,1-8.2,30.85c-7.54,19.51-18,39.23-34.57,52.58-16,12.87-35.62,19.72-54.85,26q-30.47,10-60.05,22.29c-18.64,7.77-37.22,15.8-55.54,24.3-17.94,8.32-35,18.42-49,32.59-26.56,26.94-43.91,61.78-59.41,95.85-3.94,8.64-7.76,17.34-11.57,26-.65,1.46,1.51,2.73,2.15,1.26,15.25-34.73,30.52-70.2,53.19-100.87,12.16-16.44,26.49-30.73,44.08-41.34,16.76-10.1,35.16-17.44,53-25.27,20.07-8.79,40.28-17.27,60.9-24.69,17.92-6.46,36.47-11.4,53.82-19.35,17.14-7.85,31.82-18.87,42.58-34.48a159,159,0,0,0,23.8-54.29c4.37-19.44,3.13-41,16.71-57.11s35.22-23.76,55.68-26.25c41.64-5.08,83.53,5.47,125.21-1,38-5.89,72.26-25.5,101.77-49.53,16.67-13.57,32-28.66,47.71-43.33a602.08,602.08,0,0,1,50.77-42.77c17-12.69,34.53-24.68,52.49-35.93,18.72-11.74,38.55-22.38,60.83-25s44.64,1.42,66.5,5.4l67,12.2,33.48,6.1c1.57.29,2.24-2.12.66-2.41Z" />
      <path class="ag"
        d="M1077.27,238.37l-69.25-13c-21.76-4.09-43.54-9-65.56-11.38-21.42-2.34-42.58-.95-62.6,7.47-19.75,8.3-37.59,20.87-55.13,33S790,279.27,773.62,292.9c-17,14.12-32.84,29.47-48.92,44.6-30.23,28.46-63,55.51-102.85,69.1-20.77,7.08-42.38,9.43-64.24,9.38-21.52-.06-43-2.3-64.49-2.21-34.76.15-79.72,9.75-91.47,47.76-2.74,8.86-3.39,18.21-4.47,27.37a141.2,141.2,0,0,1-7.59,32.72c-7.27,19.73-18,39.75-34.47,53.27-16.23,13.31-36.44,20.21-56.19,26.4-20.27,6.35-40.31,13.23-60.11,21-19.36,7.54-38.68,15.35-57.74,23.63-18.31,8-35.81,17.7-50.13,31.81-27.28,26.89-44.65,62.45-60,97.05-3.88,8.75-7.64,17.55-11.39,26.36-.62,1.46,1.53,2.74,2.16,1.26,15.06-35.35,30.2-71.52,53.34-102.5,12.34-16.52,27-30.62,45-40.89s37.57-17.42,56.62-25.2c20.06-8.19,40.25-16.07,60.78-23,18.12-6.12,36.82-10.84,54.26-18.8S363.7,572.8,374.48,557c11.29-16.49,19.82-36.21,23.44-55.89,3.67-20,2.26-41.29,16.5-57.55,13.29-15.18,33.44-22.75,53-25.62,20.85-3.06,42.11-1.44,63.05-.36,21.35,1.09,42.88,1.69,64.07-1.63,37.67-5.92,71.56-25.38,100.84-49.09,17-13.77,32.62-29.11,48.52-44.1a652.49,652.49,0,0,1,50.77-43.46c17.21-13.18,35-25.66,53.22-37.42,18.7-12.08,38.53-23,61-25.73s44.9,1.51,66.85,5.63L1043,234.46l33.64,6.32c1.57.29,2.24-2.11.66-2.41Z" />
      <path class="ah"
        d="M1084.51,245.82l-69.6-13.48c-21.91-4.24-43.85-9.32-66-11.81-20.87-2.34-41.65-1.12-61.21,7C867.79,235.83,850,248.69,832.53,261c-17.8,12.57-35.22,25.72-51.91,39.74-17.27,14.51-33.4,30.21-49.77,45.69-30.54,28.86-63.68,56.34-104,70.07-42.4,14.42-85.89,6.79-129.56,7.58-35.17.63-80.39,11.76-90.63,50.78-2.48,9.43-2.8,19.26-3.77,28.92A128.83,128.83,0,0,1,395.54,536c-7.62,20.6-19.32,41.12-37.25,54.38-16.62,12.28-36.5,18.64-56.09,24.45q-31.89,9.45-63.08,20.91C219.58,643,200,650.2,180.75,658.26,162.4,666,145.13,675.73,131,689.9c-27.16,27.19-44.16,63-59.15,97.91-3.58,8.34-7,16.73-10.52,25.11-.61,1.49,1.8,2.14,2.41.67,14.76-35.71,29.67-72.36,53.08-103.44,12.61-16.76,27.75-30.8,46.27-40.81,18.1-9.78,37.91-16.47,57.08-23.8,20.47-7.81,41.05-15.34,61.93-22,18.66-5.94,37.87-10.52,55.78-18.56,17.5-7.84,32.25-19.2,43.17-35,11.44-16.61,20-36.53,23.13-56.49,3.24-20.43,1.34-41.74,15.63-58.52,13.2-15.5,33.66-23.41,53.33-26.44,42.41-6.52,85.49,4.19,128-2.88,38.1-6.33,72.17-26.46,101.65-50.68,16.78-13.78,32.26-29.05,48-44,15.91-15.08,32.36-29.5,49.63-43C818,274.16,836.25,261,854.91,248.68c18.89-12.51,39-23.66,61.87-26.13,22-2.37,44.11,1.87,65.65,6L1050,241.68l33.8,6.55c1.57.3,2.25-2.11.67-2.41Z" />
      <path class="ai"
        d="M1091.74,253.26l-69.93-13.93c-22-4.39-44.06-9.64-66.38-12.21-21-2.44-42-1.17-61.65,7.25-20.17,8.64-38.1,22.08-55.76,34.9s-34.67,26-51.15,40C769.61,324,753.44,339.84,737,355.44c-30.84,29.25-64.37,57.19-105.22,71.05-42.4,14.39-86.06,6.71-129.73,8-35.13,1-80.35,13-90,52.14-2.38,9.62-2.49,19.59-3.21,29.41a123.4,123.4,0,0,1-7,33.5c-7.59,20.84-19.68,41.2-37.87,54.41-16.61,12.06-36.51,18.23-56,23.73-21.53,6.07-42.87,12.62-64,19.9-20.2,7-40.49,13.9-60.37,21.73-18.72,7.39-36.4,17-50.85,31.18-27.22,26.79-44,62.57-58.61,97.3-3.72,8.86-7.31,17.77-10.89,26.69-.59,1.5,1.82,2.15,2.42.67,14.55-36.31,29.32-73.71,53.23-105.07,12.64-16.58,27.9-30.29,46.48-39.9S204,664.3,223.57,657.33c21.19-7.56,42.48-14.84,64-21.27,18.62-5.56,37.7-9.91,55.57-17.67s33.17-19.34,44.39-35.53c11.43-16.46,19.83-36.25,22.64-56.14,3-21.1.26-43,14.94-60.46,13.16-15.63,33.32-23.82,53-27.14,42.2-7.09,85.27,3.4,127.59-3.54,38.38-6.29,72.64-26.52,102.31-50.9C725.2,370.62,741,355.06,757,339.8s32.44-29.85,49.69-43.61,35.33-27.13,53.7-39.68c18.59-12.71,38.38-24.32,61.11-27.2s45.51,1.64,67.7,6.06q34,6.75,67.94,13.53l34,6.77c1.58.32,2.25-2.09.67-2.41Z" />
      <path class="aj"
        d="M1099,260.71l-70.27-14.4c-22.11-4.53-44.27-9.95-66.71-12.61-21.18-2.51-42.21-1.22-61.94,7.42-20.53,9-38.68,23.09-56.54,36.41s-35.16,27-51.88,41.53c-17.2,15-33.38,31-49.91,46.69-31.12,29.53-65.21,57.69-106.6,71.22-43.06,14.08-87.41,5.6-131.61,8-36.4,2-80.77,17.34-87.11,58.52-1.55,10-1.24,20.25-2,30.37a114.07,114.07,0,0,1-8,33.63c-8.3,20.78-21.27,40.09-40.33,52.35-17.24,11.08-37.17,16.62-56.79,21.81q-32.38,8.57-64.22,18.91c-20.35,6.57-40.87,13-60.87,20.55-18.6,7-36.06,16.44-50.38,30.44-27.36,26.75-43.91,62.83-58.2,97.74C72,818.16,68.48,827.08,65,836c-.58,1.5,1.83,2.15,2.41.67,14.11-36.29,28.47-73.68,52.12-105,12.57-16.66,27.86-30.5,46.56-40s39-15.25,58.65-21.81c21.15-7,42.37-13.87,63.81-20,19.33-5.5,39.2-9.66,57.86-17.24,17.27-7,32.6-17.16,44.12-32,12.63-16.25,21.93-36.54,25.2-56.91s-.95-42.75,10.95-61.05c11.68-17.94,32.61-28,53-32.27,42.32-8.89,86.16,1.76,128.84-4.61C647.33,440.05,682,420,712,395.56c17.46-14.2,33.51-30,49.73-45.59,16-15.38,32.44-30.26,49.64-44.31q26.43-21.59,54.39-41.29c18.29-12.89,37.81-25,60.34-28.28,23-3.39,46.32,1.26,68.83,5.86l69.21,14.18,34.13,7c1.57.32,2.24-2.09.66-2.41Z" />
      <path class="ak"
        d="M1106.2,268.16l-70.6-14.86c-22.53-4.74-45.11-10.44-68-13.13-21.34-2.5-42.4-.94-62.12,8.08-20.84,9.54-39.17,24.3-57.26,38.16-17.73,13.59-35.1,27.66-51.82,42.48-17.16,15.2-33.34,31.41-50,47.19-31,29.42-65.14,57.45-106.39,70.85-43.36,14.09-88.1,5.39-132.58,8.51-36.36,2.54-80.07,19-85.72,60.14-1.44,10.43-.79,21-1.41,31.47a109.68,109.68,0,0,1-8,34.88c-8.46,20.92-22,39.92-41.4,51.9-17.57,10.85-37.77,16.11-57.62,21.06-21.95,5.47-43.72,11.54-65.38,18.06-20.7,6.23-41.62,12.21-62,19.52-19.13,6.87-37,16.36-51.55,30.71C107.43,749.69,91.28,785.44,77.46,820c-3.65,9.12-7.13,18.31-10.59,27.5-.57,1.51,1.84,2.16,2.41.67,13.66-36.26,27.61-73.68,51-105,12.67-16.94,28.14-31,47.2-40.38,18.62-9.19,39-14.55,58.8-20.68,21.84-6.78,43.75-13.36,65.85-19.28,19.63-5.26,39.78-9.21,58.79-16.56,18.26-7.07,34.41-17.57,46.49-33.16,12.24-15.81,21.2-35.4,24.29-55.19,3.29-21.14-2-44,9.86-63.2,11.28-18.26,32.06-28.85,52.41-33.52,42-9.64,85.79.63,128.23-5.34,39.77-5.6,75.16-26.1,105.85-51.18,34.81-28.45,65-62.05,99.61-90.83q26.08-21.69,53.58-41.65c18.49-13.43,38.23-26.16,61.27-29.63s46.59,1.34,69.19,6.08l69.54,14.63,34.29,7.22c1.57.33,2.24-2.08.66-2.41Z" />
      <path class="al"
        d="M1113.44,275.61l-72-15.54c-22.3-4.81-44.65-10.58-67.32-13.32-21.81-2.63-43.25-.88-63.25,8.66-19.52,9.31-36.64,23.3-53.6,36.51-18.18,14.17-36,28.81-53.17,44.17-17.44,15.59-33.94,32.15-50.85,48.29C722,414.26,687.53,442.89,645.8,456.63c-43.55,14.34-88.65,5.6-133.34,9.2-36.85,3-80.66,20.6-85.47,62.37-1.26,11-.23,22-.74,33a104.07,104.07,0,0,1-7.67,34.25c-8.25,20.48-21.69,39.16-40.59,51-17.95,11.2-38.66,16.48-59,21.27q-33.82,8-67.27,17.33c-21.1,5.9-42.43,11.5-63.2,18.5-19.15,6.47-37.19,15.57-51.89,29.67-27.63,26.49-43.8,62.95-57.46,98.06-3.59,9.23-7,18.52-10.41,27.82-.55,1.51,1.86,2.17,2.41.66,13.46-36.85,27.28-75,51.16-106.58,12.68-16.77,28.29-30.49,47.39-39.5,19.6-9.24,41.09-14.35,61.84-20.31,22-6.3,44-12.43,66.12-18,19.86-5,40.21-8.69,59.39-16,17.85-6.79,33.85-16.9,45.87-31.92,12.59-15.71,21.74-35.28,24.8-55.24,3.34-21.83-3-45.33,8.74-65.37,11-18.73,31.86-29.87,52.39-34.89,42.44-10.36,87,0,130-6.37,39.58-5.9,74.76-26.61,105.28-51.68,34.94-28.7,65.33-62.51,99.85-91.75q26.72-22.62,54.86-43.54c17.8-13.19,36.89-25.65,59.15-29.28,23.25-3.8,46.86,1,69.56,5.93q35.41,7.62,70.82,15.29l34.45,7.44c1.57.34,2.24-2.07.67-2.41Z" />
      <path class="am"
        d="M1120.67,283.05l-72.3-16c-22.4-4.95-44.85-10.89-67.65-13.72-21.93-2.71-43.49-.93-63.54,8.85-19.58,9.55-36.68,23.91-53.62,37.42-18.15,14.48-36,29.41-53.17,45-17.43,15.79-34,32.5-51,48.76-31.42,30.09-66,59-107.88,73-43.74,14.57-89.18,5.82-134.1,9.91-37.37,3.4-81.2,22.17-85.19,64.59-1.05,11.17.3,22.4,0,33.6a100.18,100.18,0,0,1-7.37,34.6c-8.3,20.69-22.18,39.36-41.41,51-18.65,11.3-40.11,16.39-61.18,21q-34.54,7.62-68.75,16.56c-21.41,5.56-43.13,10.69-64.18,17.51C170,721.4,151.9,730.56,137.16,744.8c-27.39,26.48-43.21,62.94-56.48,98-3.49,9.23-6.81,18.53-10.1,27.83-.54,1.52,1.87,2.17,2.41.66,13-36.83,26.46-74.93,50.06-106.54,12.53-16.8,28.08-30.61,47.16-39.53,19.85-9.28,41.69-14,62.77-19.6,22.34-5.94,44.71-11.73,67.22-17,20.54-4.82,41.58-8.38,61.47-15.61,18.3-6.65,34.83-16.7,47.25-31.89,12.84-15.72,22.08-35.38,24.92-55.54,3.13-22.25-4-46,7.48-66.62,10.74-19.19,31.64-30.89,52.35-36.25,42.59-11,87.54-.73,130.74-7.27,39.79-6,75.07-27,105.69-52.31,35.07-28.95,65.63-63,100.09-92.68C848,315.08,866.3,300.19,885,285.94c17.75-13.49,36.85-26.29,59.28-30,23.37-3.89,47.12,1.11,69.91,6.14q35.58,7.83,71.15,15.74l34.63,7.66c1.56.35,2.23-2.06.66-2.41Z" />
      <path class="an"
        d="M1127.9,290.5l-73.66-16.7c-22.48-5.09-45-11.22-67.94-14-22.42-2.74-44.32-.49-64.54,10-19.51,10.14-36.55,24.87-53.48,38.72-18.65,15.26-36.93,31-54.62,47.34-17.1,15.82-33.41,32.46-50.26,48.54-31.72,30.3-66.91,59.31-109.41,72.68-44.15,13.9-90.08,4.47-135.18,9.93-37.85,4.58-79.64,26-81.42,68.77-.46,11,1.05,22,.81,33.05a97.67,97.67,0,0,1-8.45,37c-8.63,19.78-22.57,37.12-41.33,48-18.6,10.82-39.78,15.67-60.64,20q-34.89,7.23-69.53,15.52c-21.94,5.25-44.18,10-65.79,16.54-19.61,5.9-38,14.71-53.08,28.85-28.1,26.43-43.92,63.65-57,99.18-3.44,9.34-6.7,18.74-9.93,28.15-.52,1.52,1.89,2.18,2.41.66,12.83-37.4,26.09-76.28,50.2-108.16,12.82-17,28.85-30.59,48.4-39.17,20-8.76,41.81-13,62.89-18.16,23.07-5.65,46.17-11.17,69.39-16.22,20.7-4.5,41.88-7.85,61.91-15,18.31-6.51,34.9-16.49,47.42-31.54,12.83-15.44,22-34.8,24.79-54.74,3-21.81-4.61-45.09,4.9-65.86,9.18-20.06,29.48-33.12,49.95-39.47,42.22-13.11,87.82-3,131.06-8.68,40.47-5.35,76.27-25.78,107.53-51.21,35.91-29.22,66.92-64,101.66-94.61q26.16-23,53.57-44.6c18.27-14.4,37.84-28.54,61.22-32.79,23.77-4.31,48.06.95,71.23,6.18q35.76,8.07,71.49,16.21l34.79,7.88c1.57.36,2.23-2.05.66-2.41Z" />
      <path class="ao"
        d="M1135.14,298l-74-17.17c-22.9-5.31-45.88-11.74-69.26-14.53C969.64,263.59,948,266,928,276.6c-20.15,10.71-37.63,26.34-55,40.92-18.1,15.17-35.86,30.75-53.09,46.9-17.59,16.47-34.4,33.74-51.83,50.37-31.81,30.36-67.31,59.43-110,72.54-43.95,13.48-89.78,4.24-134.61,10.17-39.2,5.18-80.74,28.66-80.76,72.84,0,11.25,1.75,22.43,1.49,33.7a93.93,93.93,0,0,1-8.26,35.65c-8.85,20.12-23.39,37.43-42.68,48.19-18.94,10.57-40.39,15.14-61.49,19.22Q296.28,714,261,721.73c-22.3,4.91-44.92,9.26-66.88,15.53-19.83,5.66-38.45,14.38-53.61,28.62-28.2,26.46-43.8,64-56.6,99.67-3.35,9.34-6.51,18.73-9.63,28.15-.51,1.53,1.9,2.18,2.41.66C89.11,857,102,818.13,125.8,786.23c12.68-17,28.61-30.75,48.15-39.25,20.2-8.8,42.34-12.68,63.73-17.49,23.46-5.28,46.95-10.45,70.52-15.23,21.06-4.26,42.6-7.38,63.05-14.17,18.85-6.27,36.17-16.05,49.25-31.22s22.43-34.24,25.28-54.06c3.12-21.75-4.94-44.65,2.73-65.77,7.8-21.48,28.46-36,49.36-43.19,42.38-14.53,88.81-4.33,132.48-10,40.79-5.33,76.72-25.76,108.22-51.39C774.68,415.06,805.82,380,840.45,349Q866.64,325.53,894,303.4c18.17-14.71,37.66-29.43,61.13-34,24.2-4.72,49,.75,72.56,6.2q35.92,8.3,71.82,16.66l35,8.11c1.57.36,2.24-2.05.67-2.41Z" />
      <path class="ap"
        d="M1142.37,305.4,1068,287.75c-23-5.45-46.08-12.05-69.59-14.93-22.36-2.74-44.14-.26-64.13,10.57-20.23,11-37.66,27-55,41.86-18.6,15.93-36.86,32.26-54.59,49.13-17.3,16.47-33.92,33.62-51.19,50.12-32.16,30.7-68.09,60.07-111.38,73.06-43.94,13.18-89.9,3.91-134.63,10.51-19.82,2.92-39.18,9.73-54.81,22.57-16.51,13.56-25.22,32-24.6,53.36.32,11.45,2.33,22.8,2.13,34.28a91.44,91.44,0,0,1-8.39,35.83c-9,19.9-23.75,36.83-43,47.29-19.49,10.61-41.49,15-63.12,18.86q-35.44,6.36-70.75,13.49c-22.47,4.53-45.24,8.47-67.42,14.3-20.45,5.37-39.69,13.9-55.35,28.39-28.55,26.4-44,64.37-56.58,100.34-3.29,9.43-6.39,18.94-9.45,28.45-.49,1.54,1.92,2.2,2.41.67,12.2-37.94,24.92-77.57,49.25-109.74,13.22-17.49,30-31.22,50.52-39.32s42.78-11.58,64.32-16c23.42-4.81,46.86-9.53,70.37-13.92,21.23-4,42.9-6.86,63.52-13.47,18.76-6,36.18-15.5,49.41-30.31,13.39-15,23-34.08,25.88-54,3.22-22.21-5.63-45.26,1.37-67,7.14-22.2,27.89-37.6,49.06-45.29,42.25-15.34,89-5.45,132.69-11,41.09-5.25,77.2-25.77,108.92-51.56,36.3-29.5,67.57-64.76,102.09-96.24q26.22-23.91,53.55-46.58c18.36-15.25,38-30.68,62-35.44s48.59.66,72,6.17q36.06,8.49,72.1,17.1l36.15,8.58c1.56.37,2.23-2,.66-2.41Z" />
      <path class="aq"
        d="M1149.6,312.84l-74.7-18.11c-23.42-5.68-47-12.6-70.92-15.46-22.54-2.7-44.34.15-64.27,11.39-20.22,11.41-37.59,27.78-55,43q-27.46,24-53.84,49.3c-17.54,16.89-34.44,34.43-52,51.26C746.4,465.23,710,495,666.13,507.79c-44.23,12.9-90.56,3.42-135.44,11-20,3.37-39.44,10.9-54.73,24.5-16.15,14.36-23.74,33.22-22.45,54.7.69,11.56,2.91,23,2.72,34.62a89.3,89.3,0,0,1-8.55,35.92,99.52,99.52,0,0,1-44.1,46.8c-19.57,10.21-41.51,14.32-63.08,17.91Q304,739.33,267.67,746c-23.12,4.25-46.59,7.79-69.4,13.54-20.6,5.2-39.9,13.82-55.53,28.49-28,26.28-43.14,63.86-55.29,99.49C84.14,897.21,81,907,78,916.77c-.48,1.54,1.93,2.2,2.41.67,11.79-37.9,24.18-77.46,48.17-109.68,13.27-17.82,30.23-31.74,51.06-39.8,20.53-8,42.78-11,64.31-15,23.81-4.44,47.63-8.82,71.49-12.93,21.88-3.77,44.21-6.44,65.51-12.91,19.29-5.85,37.28-15.3,51-30.32S455.3,662.6,458,642.47c3-22.08-6.13-44.63-.33-66.4,6.11-22.93,26.51-39.36,47.78-47.82,42-16.71,89.24-7.08,133.06-12.38,41.48-5,77.85-25.3,109.91-51.26,37.05-30,68.88-66,103.79-98.33Q878.46,342,905.75,318.8c18-15.34,37.43-31,61.15-36.07,24.41-5.2,49.5.43,73.29,6.16q36.22,8.72,72.43,17.56l36.32,8.81c1.56.37,2.23-2,.66-2.42Z" />
      <path class="ar"
        d="M1156.84,320.29l-75-18.59c-23.52-5.82-47.17-12.93-71.27-15.86-23-2.81-45.21.27-65.4,12.11s-37.52,28.59-54.89,44.13Q862.44,367,835.67,393c-17.51,17.09-34.45,34.76-52.15,51.65-32.61,31.09-69.29,60.86-113.39,73.39-44.78,12.71-91.81,2.81-137.07,11.73-19.56,3.85-38.55,12-53.18,25.77-15.36,14.51-22.57,33.25-21.05,54.27.85,11.73,3.34,23.31,3.45,35.1a86.43,86.43,0,0,1-7.93,36.35,99.08,99.08,0,0,1-45.19,47.61C389,739.1,366.51,743,344.41,746.38q-37.07,5.68-74,11.83c-23.25,3.87-46.87,7-69.82,12.39-20.27,4.78-39.41,12.86-55,26.92-29.11,26.22-44.35,64.88-56.41,101.21-3.26,9.81-6.29,19.69-9.27,29.58a1.25,1.25,0,0,0,2.41.67c11.59-38.47,23.81-78.79,48.31-111.3,13.15-17.45,30.07-31,50.64-38.72,21.11-7.9,43.93-10.63,66-14.36,24.21-4.08,48.42-8.11,72.67-11.92,22.14-3.49,44.73-5.93,66.31-12.24,19.5-5.7,37.74-15.06,51.7-30.06,13.52-14.51,23.27-33.26,26-53,3.28-23.3-7.13-46.91-1.08-69.9,5.82-22.07,24.71-38.34,44.9-47.35,41.48-18.51,89.41-9.26,133.25-14.08C733.41,515.92,794,435.42,857,376q26.64-25.12,54.29-49.17c18.24-15.89,37.77-32.25,62-37.54s49.13.33,72.68,6.1c24.59,6,49.16,12.18,73.75,18.27l36.48,9c1.56.39,2.23-2,.67-2.41Z" />
      <path class="as"
        d="M1164.07,327.74l-75.4-19.06c-23.62-6-47.37-13.25-71.6-16.27-23.18-2.89-45.47.27-65.69,12.36S913.85,334,896.49,349.83c-36.73,33.53-71,69.47-106.86,103.82-32.71,31.29-69.51,61.41-113.8,74.11-45,12.91-92.4,3-137.86,12.46-19.72,4.09-38.8,12.58-53.35,26.78-15.71,15.31-22.45,34.79-20.32,56.5,1.17,11.91,3.91,23.65,4.05,35.65a84.45,84.45,0,0,1-8.13,36.53,98.68,98.68,0,0,1-46.33,47.1c-20.47,10-43.25,13.58-65.59,16.72q-37.67,5.28-75.27,10.89c-23.6,3.53-47.58,6.2-70.88,11.41-20.73,4.64-40.23,12.82-56.07,27.27-28.82,26.28-43.7,64.93-55.39,101.2-3.17,9.81-6.1,19.69-9,29.58a1.25,1.25,0,0,0,2.41.67c11.18-38.41,23-78.76,47.21-111.28,13.2-17.74,30.28-31.55,51.16-39.19,21.12-7.73,43.87-10.11,66-13.45q36.89-5.58,73.81-10.93c22.8-3.27,46.08-5.47,68.35-11.62,19.41-5.36,37.85-14.26,52.08-28.77,14.38-14.66,24.68-33.88,27.44-54.33,3.17-23.53-7.77-47-2.48-70.29,5.12-22.61,23.84-39.68,44.12-49.28,41.35-19.58,89.77-10.57,133.8-15.35,93.19-10.1,154.57-91.28,217.64-151.69q26.31-25.2,53.53-49.43c18.41-16.41,38.12-33.57,62.86-39,24.32-5.36,49.4.37,73.05,6.29,24.71,6.18,49.4,12.48,74.09,18.72l36.65,9.27c1.56.39,2.23-2,.67-2.41Z" />
      <path class="at"
        d="M1171.3,335.19,1096,315.76c-23.57-6.08-47.26-13.47-71.45-16.66-22.88-3-45.07-.34-65.18,11.46-20.82,12.21-38.27,30-55.83,46.32-36.9,34.31-71.44,70.93-107.78,105.8C762.5,494.57,725,525.41,679.81,538c-45.54,12.68-93.64,2.47-139.41,13.31-19.54,4.62-38.35,13.81-52.31,28.49-15.32,16.1-21,35.87-18.24,57.72,1.5,12,4.42,23.82,4.58,36A83,83,0,0,1,465.67,711a98.63,98.63,0,0,1-47.92,46.11c-21.36,9.74-44.93,12.89-68,15.81q-38.87,4.93-77.69,10.14c-23.05,3.07-46.51,5.23-69.25,10.16-20.59,4.45-39.91,12.6-55.6,26.9-28.91,26.34-43.54,65.29-54.95,101.72-3.07,9.81-5.91,19.69-8.7,29.58a1.25,1.25,0,0,0,2.41.66c10.94-38.84,22.55-79.77,47.08-112.53,12.88-17.2,29.55-30.63,49.83-38.08,21.78-8,45.35-10,68.19-13.11q37.85-5.07,75.71-10c22.45-2.9,45.31-4.86,67.3-10.46,20-5.09,39.11-13.77,54-28.35s25.6-34.15,28.27-55c3-23.44-8.08-46.4-4-69.7s22.63-41.6,43.18-52c40.95-20.66,89.59-12.23,133.61-16.73,94.58-9.66,156.93-91.74,220.4-153.43q27.07-26.31,55-51.7c18.38-16.69,38.18-33.81,63.22-38.89,24.27-4.93,49.21,1.08,72.72,7.1q36.54,9.36,73,18.84l37.15,9.58a1.25,1.25,0,0,0,.66-2.41Z" />
      <path class="au"
        d="M1178.54,342.63l-76.7-20.16c-23.34-6.14-46.79-13.58-70.76-16.8-23.4-3.15-45.95-.22-66.32,12.2C944,330.55,926.57,348.68,909,365.35c-37,35.13-71.8,72.5-108.65,107.78-33.37,32-71.12,62.83-116.59,75.09s-93.69,2.22-139.3,13.82c-20,5.08-39.12,15-52.88,30.64-14.33,16.25-19.34,35.67-16.41,57,1.75,12.71,5.18,25.22,5.35,38.11a81,81,0,0,1-8.6,36.81c-10.48,21.26-28.55,37.44-50.22,46.71C399.87,780.6,376,783.37,352.64,786q-38.49,4.4-77,8.93c-23.78,2.79-48,4.57-71.47,9.41-20.19,4.16-39.24,12-54.79,25.75-29.61,26.29-44.24,66-55.47,102.91-3,9.91-5.8,19.89-8.52,29.89a1.25,1.25,0,0,0,2.41.66c10.65-39.16,22-80.54,46.73-113.5,13.05-17.42,30.11-30.81,50.77-38,21.77-7.6,45.19-9.29,67.94-12q38.44-4.53,76.88-9c22.46-2.59,45.29-4.31,67.35-9.47,20.52-4.81,40.4-13.24,55.86-27.89,15.09-14.3,26.1-33.52,28.94-54.27,3.33-24.42-8.71-48-5-72.24,3.56-23.3,21.38-41.79,41.42-52.66,40.92-22.21,90.37-14.05,134.88-18.52,44-4.42,81.93-24.62,115.89-52.15,38.33-31.05,71.21-68.36,106.26-102.92q27.1-26.73,55-52.64c18.08-16.76,37.59-34.12,62.37-39.51s50.13.85,74.05,7.09q36.7,9.58,73.39,19.3l37.31,9.81a1.26,1.26,0,0,0,.67-2.42Z" />
      <path class="av"
        d="M1185.77,350.08l-81.22-21.75c-24.57-6.59-49.42-14.8-74.88-17-24.39-2.09-46.49,4.16-66.29,18.47-20.28,14.66-37.89,33.31-55.77,50.72C871.24,416,837,453.66,800,488.35c-33.12,31-70.86,60.35-115.87,71-42.05,9.95-86,2.5-128.15,11.66-39.35,8.55-79.79,38.15-76.39,82.66.93,12.17,4.3,24,6,36a81.14,81.14,0,0,1-2.41,36c-6.52,21.16-21.56,39.62-40.34,51.19-21.72,13.38-47.34,17.9-72.31,20.74-26.76,3-53.6,5.51-80.4,8.25-25.95,2.64-52.23,4.32-78,8.55-21.45,3.53-42.08,10.5-59,24.54C121.92,864.81,107,906,95.78,943.68c-3,10.2-5.8,20.49-8.51,30.79a1.25,1.25,0,0,0,2.41.66c10.62-40.39,22-83.85,48.45-117.15A106.12,106.12,0,0,1,191,821.69c24.23-7.33,50.23-8.4,75.27-11l81.33-8.29c23.7-2.42,47.87-4.24,70.65-11.71,38.16-12.53,71.07-45.78,70.9-88-.1-24.72-12.51-48.69-4.48-73.32,7.1-21.82,25.82-38.25,46.19-47.62,39.26-18,84.53-11.67,126.34-15.67a187.07,187.07,0,0,0,58.35-14.86c19.73-8.73,37.86-20.68,54.78-34,37.39-29.39,69.24-65.18,102.62-98.87q28.56-28.83,57.93-56.85c17.73-16.91,36.21-35.61,59.93-43.73,25.21-8.62,52.2-3.15,77.21,3.32,25.89,6.69,51.68,13.81,77.52,20.73l39.56,10.6a1.25,1.25,0,0,0,.67-2.41Z" />
    </svg>