<?xml version="1.0" standalone="no"?>
<!DOCTYPE svg PUBLIC "-//W3C//DTD SVG 20010904//EN"
 "http://www.w3.org/TR/2001/REC-SVG-20010904/DTD/svg10.dtd">
<svg version="1.0" xmlns="http://www.w3.org/2000/svg"
 width="500.000000pt" height="500.000000pt" viewBox="0 0 500.000000 500.000000"
 preserveAspectRatio="xMidYMid meet">
<metadata>
Created by potrace 1.14, written by Peter Selinger 2001-2017
</metadata>
<g transform="translate(0.000000,500.000000) scale(0.100000,-0.100000)"
fill="#000000" stroke="none">
<path d="M1398 3566 c-334 -59 -590 -251 -725 -543 -56 -121 -84 -247 -90
-404 -22 -542 264 -946 732 -1034 119 -23 317 -16 423 15 137 39 259 116 324
205 18 24 36 44 39 45 4 0 9 -21 13 -47 8 -63 47 -144 80 -171 15 -11 43 -26
63 -33 40 -13 142 -8 186 10 l27 11 0 462 c0 432 -1 466 -19 498 -10 19 -30
44 -45 55 -26 19 -41 20 -399 20 -337 0 -375 -2 -404 -18 -46 -24 -63 -64 -63
-142 0 -78 17 -118 63 -142 27 -15 67 -19 252 -23 l220 -5 -4 -55 c-10 -163
-133 -297 -317 -345 -70 -18 -231 -21 -300 -4 -151 36 -283 145 -352 289 -53
112 -72 202 -72 343 0 202 53 348 174 475 111 117 245 172 419 172 163 0 315
-62 426 -172 34 -33 61 -64 61 -69 0 -15 63 -9 106 10 58 27 111 83 125 133
47 176 -140 367 -437 444 -82 22 -127 27 -264 30 -111 2 -190 -1 -242 -10z"/>
<path d="M2926 3525 c-49 -17 -93 -59 -117 -110 -18 -38 -19 -83 -19 -843 0
-885 -3 -842 63 -910 56 -58 87 -62 506 -62 207 0 419 5 471 10 211 23 349 73
448 165 100 93 142 201 142 370 0 231 -108 380 -334 461 l-78 27 62 23 c73 26
162 85 195 128 69 93 96 209 77 336 -34 234 -195 366 -497 410 -38 5 -252 9
-475 9 -318 0 -413 -3 -444 -14z m789 -320 c84 -22 128 -54 159 -116 50 -102
25 -239 -57 -305 -77 -61 -110 -68 -364 -72 l-233 -4 0 256 0 256 218 0 c164
0 233 -4 277 -15z m-15 -755 c108 -13 196 -54 234 -108 35 -51 50 -136 37
-207 -13 -70 -31 -104 -75 -143 -65 -57 -111 -65 -408 -70 l-268 -4 0 271 0
271 198 0 c109 0 236 -5 282 -10z"/>
<path d="M710 1343 c-14 -2 -40 -9 -57 -14 -33 -10 -33 -11 -33 -76 l0 -65 53
7 c111 16 159 4 297 -75 112 -64 161 -81 235 -82 55 0 71 6 220 82 148 75 165
81 220 81 73 0 125 -18 225 -76 120 -70 164 -86 236 -87 68 0 103 14 299 119
65 36 76 38 156 38 81 0 91 -2 160 -39 218 -116 221 -117 292 -118 71 0 92 8
292 114 76 41 84 43 166 43 83 0 90 -2 165 -43 188 -101 220 -114 289 -114 69
-1 101 13 289 114 74 41 83 43 160 43 44 0 91 -4 104 -8 21 -8 22 -7 22 57 0
63 -1 66 -31 82 -38 19 -121 21 -175 4 -21 -7 -78 -34 -125 -61 -136 -77 -172
-90 -245 -90 -70 0 -98 11 -284 111 -87 47 -150 61 -217 49 -27 -5 -82 -27
-123 -49 -188 -101 -214 -111 -286 -111 -72 0 -70 -1 -289 114 -123 66 -204
66 -324 2 -193 -103 -226 -116 -287 -116 -74 -1 -122 16 -233 80 -188 108
-267 111 -434 13 -118 -69 -182 -93 -244 -93 -72 0 -118 16 -241 85 -120 67
-189 88 -252 79z"/>
</g>
</svg>
